<svg width="1234" height="568" viewBox="0 0 1234 568" fill="none" xmlns="http://www.w3.org/2000/svg">
<g clip-path="url(#clip0_622_109)">
<rect width="1234" height="567.297" rx="21.4236" fill="black"/>
<path d="M2.14258 499.598L103.262 509.453V566.868H2.14258V499.598Z" fill="#D4FFED" fill-opacity="0.4"/>
<path d="M188.528 491.886L102.834 509.453V566.868H1234V135.397L1131.17 239.638L1045.47 241.168L959.778 302.685L874.084 278.507L790.96 421.188L696.696 407.905L617.001 445.917L531.306 453.017L445.612 463.117L359.917 465.321L274.223 501.741L188.528 491.886Z" fill="#D4FFED"/>
<path d="M3 500.455L102.406 509.453L195.384 518.88H274.223L359.917 508.168L444.755 519.982L531.306 487.295L617.001 488.764L702.695 478.665L788.39 519.982L868.085 478.665L984.201 518.88L1057.9 460.607L1138.45 488.764L1236.14 437.409" stroke="#FE6C2D" stroke-width="5.14167" stroke-dasharray="15.43 15.43"/>
<path d="M102.834 512.453L188.528 491.886L274.223 501.741L359.917 465.321L445.612 463.117L531.306 453.017L617.001 445.917L696.696 407.905L788.389 423.759L874.084 278.507L959.778 302.685L1045.47 241.168L1131.17 239.638L1244.71 125.114" stroke="#04F791" stroke-width="6.85556"/>
<g filter="url(#filter0_d_622_109)">
<path d="M617 270.794L617 567.297" stroke="white" stroke-width="6.37" stroke-linecap="round"/>
</g>
<path d="M874.082 270.794L874.082 567.297" stroke="white" stroke-width="1.37111"/>
<g filter="url(#filter1_d_622_109)">
<path d="M359.916 340.207L359.916 567.297" stroke="white" stroke-width="6.37" stroke-linecap="round"/>
</g>
<path opacity="0.9" d="M417.321 333.642C417.321 324.346 418.987 317.065 422.318 311.799C425.704 306.532 431.292 303.899 439.084 303.899C446.876 303.899 452.438 306.532 455.769 311.799C459.155 317.065 460.847 324.346 460.847 333.642C460.847 342.993 459.155 350.328 455.769 355.647C452.438 360.967 446.876 363.627 439.084 363.627C431.292 363.627 425.704 360.967 422.318 355.647C418.987 350.328 417.321 342.993 417.321 333.642ZM449.724 333.642C449.724 329.666 449.455 326.334 448.918 323.647C448.434 320.907 447.413 318.677 445.855 316.957C444.35 315.238 442.093 314.378 439.084 314.378C436.075 314.378 433.791 315.238 432.233 316.957C430.728 318.677 429.707 320.907 429.17 323.647C428.686 326.334 428.444 329.666 428.444 333.642C428.444 337.726 428.686 341.166 429.17 343.96C429.653 346.7 430.674 348.93 432.233 350.65C433.791 352.316 436.075 353.149 439.084 353.149C442.093 353.149 444.377 352.316 445.936 350.65C447.494 348.93 448.515 346.7 448.999 343.96C449.482 341.166 449.724 337.726 449.724 333.642ZM472.977 351.053C478.136 346.754 482.247 343.181 485.31 340.333C488.373 337.431 490.925 334.422 492.967 331.305C495.009 328.188 496.03 325.125 496.03 322.116C496.03 319.375 495.385 317.226 494.096 315.668C492.806 314.109 490.818 313.33 488.131 313.33C485.444 313.33 483.375 314.244 481.924 316.071C480.473 317.844 479.721 320.289 479.667 323.406H468.705C468.92 316.957 470.828 312.067 474.428 308.736C478.082 305.404 482.703 303.738 488.292 303.738C494.418 303.738 499.12 305.377 502.398 308.655C505.676 311.879 507.315 316.151 507.315 321.471C507.315 325.663 506.186 329.666 503.929 333.481C501.672 337.296 499.093 340.628 496.191 343.476C493.29 346.27 489.501 349.656 484.826 353.632H508.604V362.983H468.786V354.6L472.977 351.053Z" fill="#04F791"/>
<path opacity="0.9" d="M167.95 373.919C167.95 364.623 169.616 357.342 172.947 352.075C176.333 346.809 181.921 344.176 189.713 344.176C197.505 344.176 203.067 346.809 206.398 352.075C209.784 357.342 211.476 364.623 211.476 373.919C211.476 383.269 209.784 390.604 206.398 395.924C203.067 401.244 197.505 403.904 189.713 403.904C181.921 403.904 176.333 401.244 172.947 395.924C169.616 390.604 167.95 383.269 167.95 373.919ZM200.353 373.919C200.353 369.943 200.084 366.611 199.547 363.924C199.063 361.184 198.042 358.954 196.484 357.234C194.979 355.515 192.722 354.655 189.713 354.655C186.704 354.655 184.42 355.515 182.862 357.234C181.357 358.954 180.336 361.184 179.799 363.924C179.315 366.611 179.073 369.943 179.073 373.919C179.073 378.003 179.315 381.442 179.799 384.237C180.282 386.977 181.303 389.207 182.862 390.927C184.42 392.593 186.704 393.426 189.713 393.426C192.722 393.426 195.006 392.593 196.564 390.927C198.123 389.207 199.144 386.977 199.627 384.237C200.111 381.442 200.353 378.003 200.353 373.919ZM218.689 355.703V345.305H238.115V404.065H226.508V355.703H218.689Z" fill="#04F791"/>
<path opacity="0.9" d="M666.69 271.943C666.69 262.646 668.356 255.365 671.688 250.099C675.073 244.833 680.662 242.2 688.453 242.2C696.245 242.2 701.807 244.833 705.138 250.099C708.524 255.365 710.217 262.646 710.217 271.943C710.217 281.293 708.524 288.628 705.138 293.948C701.807 299.268 696.245 301.928 688.453 301.928C680.662 301.928 675.073 299.268 671.688 293.948C668.356 288.628 666.69 281.293 666.69 271.943ZM699.093 271.943C699.093 267.966 698.824 264.635 698.287 261.948C697.803 259.207 696.782 256.977 695.224 255.258C693.719 253.538 691.463 252.678 688.453 252.678C685.444 252.678 683.16 253.538 681.602 255.258C680.097 256.977 679.076 259.207 678.539 261.948C678.055 264.635 677.813 267.966 677.813 271.943C677.813 276.027 678.055 279.466 678.539 282.26C679.023 285.001 680.044 287.231 681.602 288.95C683.16 290.616 685.444 291.449 688.453 291.449C691.463 291.449 693.746 290.616 695.305 288.95C696.863 287.231 697.884 285.001 698.368 282.26C698.851 279.466 699.093 276.027 699.093 271.943ZM718.961 258.804C719.23 253.43 721.11 249.293 724.603 246.391C728.15 243.435 732.798 241.958 738.548 241.958C742.471 241.958 745.829 242.656 748.623 244.053C751.418 245.397 753.513 247.251 754.911 249.615C756.362 251.926 757.087 254.559 757.087 257.514C757.087 260.9 756.2 263.775 754.427 266.139C752.707 268.45 750.639 270.008 748.22 270.814V271.137C751.337 272.104 753.755 273.823 755.475 276.295C757.248 278.767 758.135 281.938 758.135 285.807C758.135 289.031 757.383 291.906 755.878 294.431C754.427 296.957 752.251 298.945 749.349 300.396C746.501 301.793 743.062 302.492 739.032 302.492C732.959 302.492 728.016 300.96 724.2 297.897C720.385 294.834 718.37 290.321 718.155 284.356H729.117C729.225 286.989 730.111 289.112 731.777 290.724C733.497 292.282 735.834 293.061 738.79 293.061C741.53 293.061 743.626 292.309 745.077 290.804C746.581 289.246 747.334 287.258 747.334 284.839C747.334 281.615 746.313 279.305 744.271 277.907C742.229 276.51 739.058 275.812 734.759 275.812H732.422V266.542H734.759C742.39 266.542 746.205 263.99 746.205 258.885C746.205 256.574 745.507 254.774 744.11 253.484C742.766 252.195 740.805 251.55 738.225 251.55C735.7 251.55 733.738 252.248 732.341 253.645C730.998 254.989 730.219 256.708 730.004 258.804H718.961Z" fill="#04F791"/>
<path opacity="0.9" d="M943.483 164.825C943.483 155.528 945.149 148.247 948.48 142.981C951.866 137.714 957.454 135.081 965.246 135.081C973.038 135.081 978.6 137.714 981.931 142.981C985.317 148.247 987.01 155.528 987.01 164.825C987.01 174.175 985.317 181.51 981.931 186.83C978.6 192.15 973.038 194.809 965.246 194.809C957.454 194.809 951.866 192.15 948.48 186.83C945.149 181.51 943.483 174.175 943.483 164.825ZM975.886 164.825C975.886 160.848 975.617 157.516 975.08 154.83C974.596 152.089 973.575 149.859 972.017 148.139C970.512 146.42 968.256 145.56 965.246 145.56C962.237 145.56 959.953 146.42 958.395 148.139C956.89 149.859 955.869 152.089 955.332 154.83C954.848 157.516 954.606 160.848 954.606 164.825C954.606 168.909 954.848 172.348 955.332 175.142C955.816 177.883 956.837 180.113 958.395 181.832C959.953 183.498 962.237 184.331 965.246 184.331C968.256 184.331 970.539 183.498 972.098 181.832C973.656 180.113 974.677 177.883 975.161 175.142C975.644 172.348 975.886 168.909 975.886 164.825ZM995.109 183.525V174.658L1021.47 136.935H1034.61V173.691H1041.7V183.525H1034.61V194.971H1023.32V183.525H995.109ZM1024.05 149.026L1007.52 173.691H1024.05V149.026Z" fill="#04F791"/>
<path opacity="0.9" d="M433.787 389.904C433.787 390.408 433.753 390.863 433.686 391.267H423.462C423.547 392.276 423.9 393.067 424.523 393.64C425.145 394.212 425.911 394.498 426.82 394.498C428.132 394.498 429.066 393.934 429.622 392.806H433.433C433.029 394.153 432.255 395.263 431.111 396.139C429.967 396.997 428.561 397.426 426.895 397.426C425.549 397.426 424.337 397.131 423.26 396.542C422.2 395.937 421.367 395.087 420.761 393.993C420.172 392.899 419.878 391.637 419.878 390.206C419.878 388.759 420.172 387.489 420.761 386.395C421.35 385.301 422.175 384.46 423.235 383.871C424.295 383.282 425.515 382.987 426.895 382.987C428.225 382.987 429.411 383.273 430.455 383.845C431.515 384.417 432.331 385.234 432.903 386.294C433.492 387.337 433.787 388.54 433.787 389.904ZM430.126 388.894C430.11 387.985 429.782 387.261 429.142 386.723C428.503 386.168 427.72 385.89 426.794 385.89C425.919 385.89 425.179 386.159 424.573 386.698C423.984 387.219 423.622 387.951 423.488 388.894H430.126ZM429.596 379.529L423.791 382.179V379.655L429.596 376.651V379.529ZM440.481 386.117V392.882C440.481 393.353 440.59 393.698 440.809 393.917C441.045 394.119 441.432 394.22 441.97 394.22H443.611V397.199H441.389C438.411 397.199 436.922 395.751 436.922 392.857V386.117H435.256V383.214H436.922V379.756H440.481V383.214H443.611V386.117H440.481ZM445.244 390.156C445.244 388.742 445.522 387.489 446.077 386.395C446.649 385.301 447.415 384.46 448.374 383.871C449.35 383.282 450.436 382.987 451.63 382.987C452.674 382.987 453.582 383.197 454.357 383.618C455.148 384.039 455.779 384.569 456.25 385.208V383.214H459.809V397.199H456.25V395.154C455.795 395.81 455.164 396.357 454.357 396.795C453.566 397.216 452.648 397.426 451.605 397.426C450.427 397.426 449.35 397.123 448.374 396.517C447.415 395.911 446.649 395.062 446.077 393.968C445.522 392.857 445.244 391.586 445.244 390.156ZM456.25 390.206C456.25 389.348 456.082 388.616 455.745 388.01C455.408 387.388 454.954 386.917 454.382 386.597C453.81 386.26 453.195 386.092 452.539 386.092C451.883 386.092 451.277 386.252 450.722 386.572C450.166 386.891 449.712 387.362 449.359 387.985C449.022 388.591 448.854 389.315 448.854 390.156C448.854 390.997 449.022 391.738 449.359 392.377C449.712 393 450.166 393.48 450.722 393.816C451.294 394.153 451.9 394.321 452.539 394.321C453.195 394.321 453.81 394.161 454.382 393.841C454.954 393.505 455.408 393.034 455.745 392.428C456.082 391.805 456.25 391.065 456.25 390.206ZM466.795 385.234C467.249 384.594 467.872 384.064 468.663 383.643C469.47 383.206 470.387 382.987 471.414 382.987C472.609 382.987 473.686 383.282 474.645 383.871C475.621 384.46 476.387 385.301 476.942 386.395C477.514 387.472 477.8 388.726 477.8 390.156C477.8 391.586 477.514 392.857 476.942 393.968C476.387 395.062 475.621 395.911 474.645 396.517C473.686 397.123 472.609 397.426 471.414 397.426C470.387 397.426 469.479 397.216 468.688 396.795C467.914 396.374 467.283 395.844 466.795 395.205V403.863H463.261V383.214H466.795V385.234ZM474.191 390.156C474.191 389.315 474.014 388.591 473.661 387.985C473.324 387.362 472.87 386.891 472.297 386.572C471.742 386.252 471.136 386.092 470.48 386.092C469.841 386.092 469.235 386.26 468.663 386.597C468.107 386.917 467.653 387.388 467.299 388.01C466.963 388.633 466.795 389.365 466.795 390.206C466.795 391.048 466.963 391.78 467.299 392.403C467.653 393.025 468.107 393.505 468.663 393.841C469.235 394.161 469.841 394.321 470.48 394.321C471.136 394.321 471.742 394.153 472.297 393.816C472.87 393.48 473.324 393 473.661 392.377C474.014 391.755 474.191 391.014 474.191 390.156ZM493.368 389.904C493.368 390.408 493.335 390.863 493.268 391.267H483.044C483.128 392.276 483.482 393.067 484.104 393.64C484.727 394.212 485.493 394.498 486.401 394.498C487.714 394.498 488.648 393.934 489.203 392.806H493.015C492.611 394.153 491.837 395.263 490.693 396.139C489.548 396.997 488.143 397.426 486.477 397.426C485.131 397.426 483.919 397.131 482.842 396.542C481.782 395.937 480.949 395.087 480.343 393.993C479.754 392.899 479.46 391.637 479.46 390.206C479.46 388.759 479.754 387.489 480.343 386.395C480.932 385.301 481.757 384.46 482.817 383.871C483.877 383.282 485.097 382.987 486.477 382.987C487.807 382.987 488.993 383.273 490.036 383.845C491.097 384.417 491.913 385.234 492.485 386.294C493.074 387.337 493.368 388.54 493.368 389.904ZM489.708 388.894C489.691 387.985 489.363 387.261 488.724 386.723C488.084 386.168 487.302 385.89 486.376 385.89C485.501 385.89 484.761 386.159 484.155 386.698C483.566 387.219 483.204 387.951 483.069 388.894H489.708Z" fill="#04F791"/>
<path opacity="0.9" d="M184.416 430.179C184.416 430.684 184.382 431.139 184.315 431.543H174.091C174.175 432.552 174.529 433.343 175.152 433.915C175.774 434.488 176.54 434.774 177.449 434.774C178.761 434.774 179.695 434.21 180.251 433.082H184.062C183.658 434.429 182.884 435.539 181.74 436.414C180.596 437.273 179.19 437.702 177.524 437.702C176.178 437.702 174.966 437.407 173.889 436.818C172.829 436.212 171.996 435.363 171.39 434.269C170.801 433.175 170.507 431.913 170.507 430.482C170.507 429.035 170.801 427.765 171.39 426.671C171.979 425.577 172.804 424.735 173.864 424.146C174.924 423.557 176.144 423.263 177.524 423.263C178.854 423.263 180.04 423.549 181.084 424.121C182.144 424.693 182.96 425.51 183.532 426.57C184.121 427.613 184.416 428.816 184.416 430.179ZM180.755 429.17C180.739 428.261 180.41 427.537 179.771 426.999C179.131 426.444 178.349 426.166 177.423 426.166C176.548 426.166 175.808 426.435 175.202 426.974C174.613 427.495 174.251 428.227 174.117 429.17H180.755ZM180.225 419.805L174.419 422.455V419.931L180.225 416.927V419.805ZM191.11 426.393V433.158C191.11 433.629 191.219 433.974 191.438 434.193C191.673 434.395 192.06 434.496 192.599 434.496H194.24V437.475H192.018C189.04 437.475 187.55 436.027 187.55 433.133V426.393H185.884V423.49H187.55V420.032H191.11V423.49H194.24V426.393H191.11ZM195.873 430.432C195.873 429.018 196.151 427.765 196.706 426.671C197.278 425.577 198.044 424.735 199.003 424.146C199.979 423.557 201.064 423.263 202.259 423.263C203.303 423.263 204.211 423.473 204.985 423.894C205.776 424.315 206.408 424.845 206.879 425.484V423.49H210.438V437.475H206.879V435.43C206.424 436.086 205.793 436.633 204.985 437.071C204.195 437.491 203.277 437.702 202.234 437.702C201.056 437.702 199.979 437.399 199.003 436.793C198.044 436.187 197.278 435.337 196.706 434.244C196.151 433.133 195.873 431.862 195.873 430.432ZM206.879 430.482C206.879 429.624 206.71 428.892 206.374 428.286C206.037 427.664 205.583 427.192 205.011 426.873C204.439 426.536 203.824 426.368 203.168 426.368C202.512 426.368 201.906 426.528 201.351 426.847C200.795 427.167 200.341 427.638 199.987 428.261C199.651 428.867 199.483 429.59 199.483 430.432C199.483 431.273 199.651 432.014 199.987 432.653C200.341 433.276 200.795 433.756 201.351 434.092C201.923 434.429 202.529 434.597 203.168 434.597C203.824 434.597 204.439 434.437 205.011 434.117C205.583 433.781 206.037 433.31 206.374 432.704C206.71 432.081 206.879 431.341 206.879 430.482ZM217.423 425.51C217.878 424.87 218.5 424.34 219.291 423.919C220.099 423.482 221.016 423.263 222.043 423.263C223.238 423.263 224.315 423.557 225.274 424.146C226.25 424.735 227.016 425.577 227.571 426.671C228.143 427.748 228.429 429.001 228.429 430.432C228.429 431.862 228.143 433.133 227.571 434.244C227.016 435.337 226.25 436.187 225.274 436.793C224.315 437.399 223.238 437.702 222.043 437.702C221.016 437.702 220.108 437.491 219.317 437.071C218.543 436.65 217.911 436.12 217.423 435.48V444.139H213.889V423.49H217.423V425.51ZM224.82 430.432C224.82 429.59 224.643 428.867 224.29 428.261C223.953 427.638 223.499 427.167 222.926 426.847C222.371 426.528 221.765 426.368 221.109 426.368C220.469 426.368 219.864 426.536 219.291 426.873C218.736 427.192 218.282 427.664 217.928 428.286C217.592 428.909 217.423 429.641 217.423 430.482C217.423 431.324 217.592 432.056 217.928 432.678C218.282 433.301 218.736 433.781 219.291 434.117C219.864 434.437 220.469 434.597 221.109 434.597C221.765 434.597 222.371 434.429 222.926 434.092C223.499 433.756 223.953 433.276 224.29 432.653C224.643 432.031 224.82 431.29 224.82 430.432ZM243.997 430.179C243.997 430.684 243.964 431.139 243.896 431.543H233.673C233.757 432.552 234.111 433.343 234.733 433.915C235.356 434.488 236.122 434.774 237.03 434.774C238.343 434.774 239.277 434.21 239.832 433.082H243.644C243.24 434.429 242.466 435.539 241.322 436.414C240.177 437.273 238.772 437.702 237.106 437.702C235.76 437.702 234.548 437.407 233.471 436.818C232.411 436.212 231.578 435.363 230.972 434.269C230.383 433.175 230.089 431.913 230.089 430.482C230.089 429.035 230.383 427.765 230.972 426.671C231.561 425.577 232.386 424.735 233.446 424.146C234.506 423.557 235.726 423.263 237.106 423.263C238.436 423.263 239.622 423.549 240.665 424.121C241.726 424.693 242.542 425.51 243.114 426.57C243.703 427.613 243.997 428.816 243.997 430.179ZM240.337 429.17C240.32 428.261 239.992 427.537 239.353 426.999C238.713 426.444 237.931 426.166 237.005 426.166C236.13 426.166 235.39 426.435 234.784 426.974C234.195 427.495 233.833 428.227 233.698 429.17H240.337Z" fill="#04F791"/>
<path opacity="0.9" d="M683.158 328.203C683.158 328.708 683.124 329.163 683.057 329.566H672.833C672.918 330.576 673.271 331.367 673.894 331.939C674.516 332.511 675.282 332.798 676.191 332.798C677.503 332.798 678.437 332.234 678.993 331.106H682.804C682.401 332.453 681.626 333.563 680.482 334.438C679.338 335.297 677.933 335.726 676.267 335.726C674.92 335.726 673.709 335.431 672.632 334.842C671.571 334.236 670.738 333.387 670.133 332.293C669.544 331.199 669.249 329.937 669.249 328.506C669.249 327.059 669.544 325.788 670.133 324.695C670.722 323.601 671.546 322.759 672.606 322.17C673.667 321.581 674.887 321.287 676.267 321.287C677.596 321.287 678.782 321.573 679.826 322.145C680.886 322.717 681.702 323.533 682.274 324.594C682.863 325.637 683.158 326.84 683.158 328.203ZM679.498 327.194C679.481 326.285 679.153 325.561 678.513 325.023C677.874 324.467 677.091 324.19 676.166 324.19C675.29 324.19 674.55 324.459 673.944 324.998C673.355 325.519 672.993 326.251 672.859 327.194H679.498ZM678.967 317.829L673.162 320.479V317.955L678.967 314.951V317.829ZM689.852 324.417V331.182C689.852 331.653 689.961 331.998 690.18 332.217C690.416 332.419 690.803 332.52 691.341 332.52H692.982V335.499H690.761C687.782 335.499 686.293 334.051 686.293 331.157V324.417H684.627V321.514H686.293V318.056H689.852V321.514H692.982V324.417H689.852ZM694.615 328.456C694.615 327.042 694.893 325.788 695.448 324.695C696.02 323.601 696.786 322.759 697.745 322.17C698.721 321.581 699.807 321.287 701.001 321.287C702.045 321.287 702.954 321.497 703.728 321.918C704.519 322.339 705.15 322.869 705.621 323.508V321.514H709.18V335.499H705.621V333.454C705.167 334.11 704.535 334.657 703.728 335.095C702.937 335.515 702.02 335.726 700.976 335.726C699.798 335.726 698.721 335.423 697.745 334.817C696.786 334.211 696.02 333.361 695.448 332.267C694.893 331.157 694.615 329.886 694.615 328.456ZM705.621 328.506C705.621 327.648 705.453 326.916 705.116 326.31C704.779 325.688 704.325 325.216 703.753 324.897C703.181 324.56 702.567 324.392 701.91 324.392C701.254 324.392 700.648 324.552 700.093 324.871C699.537 325.191 699.083 325.662 698.73 326.285C698.393 326.891 698.225 327.614 698.225 328.456C698.225 329.297 698.393 330.038 698.73 330.677C699.083 331.3 699.537 331.779 700.093 332.116C700.665 332.453 701.271 332.621 701.91 332.621C702.567 332.621 703.181 332.461 703.753 332.141C704.325 331.805 704.779 331.333 705.116 330.728C705.453 330.105 705.621 329.365 705.621 328.506ZM716.166 323.533C716.62 322.894 717.243 322.364 718.034 321.943C718.841 321.506 719.759 321.287 720.785 321.287C721.98 321.287 723.057 321.581 724.016 322.17C724.992 322.759 725.758 323.601 726.313 324.695C726.885 325.772 727.172 327.025 727.172 328.456C727.172 329.886 726.885 331.157 726.313 332.267C725.758 333.361 724.992 334.211 724.016 334.817C723.057 335.423 721.98 335.726 720.785 335.726C719.759 335.726 718.85 335.515 718.059 335.095C717.285 334.674 716.654 334.144 716.166 333.504V342.163H712.632V321.514H716.166V323.533ZM723.562 328.456C723.562 327.614 723.385 326.891 723.032 326.285C722.695 325.662 722.241 325.191 721.669 324.871C721.113 324.552 720.507 324.392 719.851 324.392C719.212 324.392 718.606 324.56 718.034 324.897C717.478 325.216 717.024 325.688 716.671 326.31C716.334 326.933 716.166 327.665 716.166 328.506C716.166 329.348 716.334 330.08 716.671 330.702C717.024 331.325 717.478 331.805 718.034 332.141C718.606 332.461 719.212 332.621 719.851 332.621C720.507 332.621 721.113 332.453 721.669 332.116C722.241 331.779 722.695 331.3 723.032 330.677C723.385 330.055 723.562 329.314 723.562 328.456ZM742.74 328.203C742.74 328.708 742.706 329.163 742.639 329.566H732.415C732.499 330.576 732.853 331.367 733.475 331.939C734.098 332.511 734.864 332.798 735.773 332.798C737.085 332.798 738.019 332.234 738.575 331.106H742.386C741.982 332.453 741.208 333.563 740.064 334.438C738.92 335.297 737.514 335.726 735.848 335.726C734.502 335.726 733.29 335.431 732.213 334.842C731.153 334.236 730.32 333.387 729.714 332.293C729.125 331.199 728.831 329.937 728.831 328.506C728.831 327.059 729.125 325.788 729.714 324.695C730.303 323.601 731.128 322.759 732.188 322.17C733.248 321.581 734.468 321.287 735.848 321.287C737.178 321.287 738.364 321.573 739.408 322.145C740.468 322.717 741.284 323.533 741.856 324.594C742.445 325.637 742.74 326.84 742.74 328.203ZM739.079 327.194C739.063 326.285 738.734 325.561 738.095 325.023C737.455 324.467 736.673 324.19 735.747 324.19C734.872 324.19 734.132 324.459 733.526 324.998C732.937 325.519 732.575 326.251 732.441 327.194H739.079Z" fill="#04F791"/>
<path opacity="0.9" d="M959.951 221.085C959.951 221.59 959.917 222.044 959.85 222.448H949.626C949.711 223.458 950.064 224.249 950.687 224.821C951.309 225.393 952.075 225.679 952.984 225.679C954.296 225.679 955.23 225.116 955.786 223.988H959.597C959.193 225.334 958.419 226.445 957.275 227.32C956.131 228.178 954.726 228.608 953.059 228.608C951.713 228.608 950.502 228.313 949.425 227.724C948.364 227.118 947.531 226.268 946.925 225.175C946.336 224.081 946.042 222.819 946.042 221.388C946.042 219.941 946.336 218.67 946.925 217.576C947.514 216.483 948.339 215.641 949.399 215.052C950.459 214.463 951.68 214.169 953.059 214.169C954.389 214.169 955.575 214.455 956.619 215.027C957.679 215.599 958.495 216.415 959.067 217.475C959.656 218.519 959.951 219.722 959.951 221.085ZM956.291 220.076C956.274 219.167 955.946 218.443 955.306 217.905C954.667 217.349 953.884 217.072 952.959 217.072C952.083 217.072 951.343 217.341 950.737 217.879C950.148 218.401 949.786 219.133 949.652 220.076H956.291ZM955.76 210.71L949.955 213.361V210.837L955.76 207.833V210.71ZM966.645 217.299V224.064C966.645 224.535 966.754 224.88 966.973 225.099C967.209 225.301 967.596 225.402 968.134 225.402H969.775V228.38H967.554C964.575 228.38 963.086 226.933 963.086 224.039V217.299H961.42V214.396H963.086V210.938H966.645V214.396H969.775V217.299H966.645ZM971.408 221.338C971.408 219.924 971.686 218.67 972.241 217.576C972.813 216.483 973.579 215.641 974.538 215.052C975.514 214.463 976.6 214.169 977.794 214.169C978.838 214.169 979.747 214.379 980.521 214.8C981.312 215.22 981.943 215.751 982.414 216.39V214.396H985.973V228.38H982.414V226.336C981.959 226.992 981.328 227.539 980.521 227.976C979.73 228.397 978.813 228.608 977.769 228.608C976.591 228.608 975.514 228.305 974.538 227.699C973.579 227.093 972.813 226.243 972.241 225.149C971.686 224.039 971.408 222.768 971.408 221.338ZM982.414 221.388C982.414 220.53 982.246 219.798 981.909 219.192C981.572 218.569 981.118 218.098 980.546 217.778C979.974 217.442 979.359 217.274 978.703 217.274C978.047 217.274 977.441 217.433 976.886 217.753C976.33 218.073 975.876 218.544 975.523 219.167C975.186 219.773 975.018 220.496 975.018 221.338C975.018 222.179 975.186 222.92 975.523 223.559C975.876 224.182 976.33 224.661 976.886 224.998C977.458 225.334 978.064 225.503 978.703 225.503C979.359 225.503 979.974 225.343 980.546 225.023C981.118 224.687 981.572 224.215 981.909 223.609C982.246 222.987 982.414 222.246 982.414 221.388ZM992.959 216.415C993.413 215.776 994.036 215.246 994.827 214.825C995.634 214.387 996.552 214.169 997.578 214.169C998.773 214.169 999.85 214.463 1000.81 215.052C1001.79 215.641 1002.55 216.483 1003.11 217.576C1003.68 218.653 1003.96 219.907 1003.96 221.338C1003.96 222.768 1003.68 224.039 1003.11 225.149C1002.55 226.243 1001.79 227.093 1000.81 227.699C999.85 228.305 998.773 228.608 997.578 228.608C996.552 228.608 995.643 228.397 994.852 227.976C994.078 227.556 993.447 227.026 992.959 226.386V235.044H989.425V214.396H992.959V216.415ZM1000.35 221.338C1000.35 220.496 1000.18 219.773 999.825 219.167C999.488 218.544 999.034 218.073 998.462 217.753C997.906 217.433 997.3 217.274 996.644 217.274C996.005 217.274 995.399 217.442 994.827 217.778C994.271 218.098 993.817 218.569 993.463 219.192C993.127 219.815 992.959 220.547 992.959 221.388C992.959 222.23 993.127 222.962 993.463 223.584C993.817 224.207 994.271 224.687 994.827 225.023C995.399 225.343 996.005 225.503 996.644 225.503C997.3 225.503 997.906 225.334 998.462 224.998C999.034 224.661 999.488 224.182 999.825 223.559C1000.18 222.936 1000.35 222.196 1000.35 221.338ZM1019.53 221.085C1019.53 221.59 1019.5 222.044 1019.43 222.448H1009.21C1009.29 223.458 1009.65 224.249 1010.27 224.821C1010.89 225.393 1011.66 225.679 1012.57 225.679C1013.88 225.679 1014.81 225.116 1015.37 223.988H1019.18C1018.78 225.334 1018 226.445 1016.86 227.32C1015.71 228.178 1014.31 228.608 1012.64 228.608C1011.29 228.608 1010.08 228.313 1009.01 227.724C1007.95 227.118 1007.11 226.268 1006.51 225.175C1005.92 224.081 1005.62 222.819 1005.62 221.388C1005.62 219.941 1005.92 218.67 1006.51 217.576C1007.1 216.483 1007.92 215.641 1008.98 215.052C1010.04 214.463 1011.26 214.169 1012.64 214.169C1013.97 214.169 1015.16 214.455 1016.2 215.027C1017.26 215.599 1018.08 216.415 1018.65 217.475C1019.24 218.519 1019.53 219.722 1019.53 221.085ZM1015.87 220.076C1015.86 219.167 1015.53 218.443 1014.89 217.905C1014.25 217.349 1013.47 217.072 1012.54 217.072C1011.67 217.072 1010.92 217.341 1010.32 217.879C1009.73 218.401 1009.37 219.133 1009.23 220.076H1015.87Z" fill="#04F791"/>
<g filter="url(#filter2_d_622_109)">
<path d="M102.834 461.036L102.834 567.297" stroke="white" stroke-width="6.37" stroke-linecap="round"/>
</g>
<g filter="url(#filter3_d_622_109)">
<path d="M874.084 155.964L874.084 567.297" stroke="white" stroke-width="6.37" stroke-linecap="round"/>
</g>
<g filter="url(#filter4_d_622_109)">
<path d="M1131.17 48.8457L1131.17 565.275" stroke="white" stroke-width="6.37" stroke-linecap="round"/>
</g>
<path d="M54.7979 61.4026H65.8555L60.4251 47.0002L54.7979 61.4026ZM59.0478 44.3244H62.0385L73.0568 72.4209H70.1841L66.7606 63.685H53.9716L50.5874 72.4209H47.7541L59.0478 44.3244ZM75.3345 44.3244H78.0104V61.7175C78.0104 63.344 78.194 64.7344 78.5613 65.8887C78.9285 67.0167 79.4663 67.948 80.1747 68.6826C80.883 69.3909 81.7487 69.9156 82.7718 70.2566C83.7949 70.5714 84.9492 70.7288 86.2347 70.7288C87.5464 70.7288 88.7138 70.5714 89.7369 70.2566C90.76 69.9156 91.6258 69.3909 92.3341 68.6826C93.0424 67.948 93.5802 67.0167 93.9475 65.8887C94.3147 64.7344 94.4984 63.344 94.4984 61.7175V44.3244H97.1742V62.3077C97.1742 63.7506 96.9644 65.1279 96.5446 66.4396C96.1511 67.725 95.5084 68.8531 94.6164 69.8237C93.7507 70.7944 92.6227 71.5683 91.2323 72.1454C89.8681 72.6964 88.2022 72.9718 86.2347 72.9718C84.2934 72.9718 82.6275 72.6964 81.2371 72.1454C79.873 71.5683 78.7449 70.7944 77.8529 69.8237C76.9872 68.8531 76.3445 67.725 75.9248 66.4396C75.5312 65.1279 75.3345 63.7506 75.3345 62.3077V44.3244ZM126.552 72.4209H124.624L124.27 67.3053H124.191C123.719 68.3022 123.129 69.1679 122.421 69.9024C121.739 70.6108 120.978 71.201 120.138 71.6732C119.299 72.1192 118.394 72.4471 117.423 72.657C116.479 72.8669 115.495 72.9718 114.472 72.9718C112.268 72.9718 110.327 72.5783 108.648 71.7913C106.995 70.978 105.618 69.9024 104.516 68.5645C103.414 67.2266 102.588 65.6788 102.037 63.9211C101.486 62.1634 101.21 60.3139 101.21 58.3726C101.21 56.4313 101.486 54.5818 102.037 52.8242C102.588 51.0665 103.414 49.5187 104.516 48.1807C105.618 46.8166 106.995 45.741 108.648 44.954C110.327 44.1407 112.268 43.7341 114.472 43.7341C115.941 43.7341 117.331 43.9309 118.643 44.3244C119.955 44.7179 121.122 45.3081 122.145 46.0952C123.168 46.8822 124.034 47.8528 124.742 49.0071C125.451 50.1614 125.936 51.5125 126.198 53.0603H123.522C123.444 52.247 123.168 51.4338 122.696 50.6205C122.25 49.781 121.634 49.0202 120.847 48.3382C120.086 47.6561 119.168 47.1052 118.092 46.6854C117.016 46.2394 115.81 46.0165 114.472 46.0165C112.609 46.0165 111.009 46.3706 109.671 47.0789C108.333 47.7872 107.231 48.7317 106.365 49.9122C105.526 51.0665 104.896 52.3782 104.477 53.8473C104.083 55.3164 103.886 56.8248 103.886 58.3726C103.886 59.8942 104.083 61.4026 104.477 62.898C104.896 64.3671 105.526 65.6919 106.365 66.8724C107.231 68.0267 108.333 68.958 109.671 69.6663C111.009 70.3747 112.609 70.7288 114.472 70.7288C116.02 70.7288 117.397 70.4796 118.604 69.9811C119.837 69.4565 120.873 68.735 121.712 67.8168C122.552 66.8987 123.181 65.8099 123.601 64.5507C124.021 63.2915 124.218 61.9142 124.191 60.4189H114.629V58.1365H126.552V72.4209ZM135.572 44.3244L144.898 68.958L154.579 44.3244H158.514V72.4209H155.838V48.1414H155.759L146.157 72.4209H143.639L134.392 48.1414H134.313V72.4209H131.637V44.3244H135.572ZM164.034 44.3244H183.434V46.6067H166.71V56.7592H182.372V59.0416H166.71V70.1385H183.631V72.4209H164.034V44.3244ZM187.321 44.3244H190.312L206.682 68.0923H206.76V44.3244H209.436V72.4209H206.446L190.076 48.653H189.997V72.4209H187.321V44.3244ZM212.077 44.3244H234.31V46.6067H224.512V72.4209H221.836V46.6067H212.077V44.3244ZM238.218 61.4026H249.275L243.845 47.0002L238.218 61.4026ZM242.468 44.3244H245.458L256.476 72.4209H253.604L250.18 63.685H237.391L234.007 72.4209H231.174L242.468 44.3244ZM253.349 44.3244H275.582V46.6067H265.784V72.4209H263.108V46.6067H253.349V44.3244ZM278.402 44.3244H281.078V72.4209H278.402V44.3244ZM288.109 58.3726C288.109 59.8942 288.306 61.4026 288.7 62.898C289.119 64.3671 289.749 65.6919 290.588 66.8724C291.454 68.0267 292.556 68.958 293.894 69.6663C295.232 70.3747 296.832 70.7288 298.695 70.7288C300.557 70.7288 302.145 70.3747 303.456 69.6663C304.794 68.958 305.883 68.0267 306.722 66.8724C307.588 65.6919 308.218 64.3671 308.611 62.898C309.031 61.4026 309.241 59.8942 309.241 58.3726C309.241 56.8248 309.031 55.3164 308.611 53.8473C308.218 52.3782 307.588 51.0665 306.722 49.9122C305.883 48.7317 304.794 47.7872 303.456 47.0789C302.145 46.3706 300.557 46.0165 298.695 46.0165C296.832 46.0165 295.232 46.3706 293.894 47.0789C292.556 47.7872 291.454 48.7317 290.588 49.9122C289.749 51.0665 289.119 52.3782 288.7 53.8473C288.306 55.3164 288.109 56.8248 288.109 58.3726ZM285.434 58.3726C285.434 56.4313 285.709 54.5818 286.26 52.8242C286.811 51.0665 287.637 49.5187 288.739 48.1807C289.841 46.8166 291.218 45.741 292.871 44.954C294.55 44.1407 296.491 43.7341 298.695 43.7341C300.898 43.7341 302.827 44.1407 304.479 44.954C306.132 45.741 307.509 46.8166 308.611 48.1807C309.713 49.5187 310.539 51.0665 311.09 52.8242C311.641 54.5818 311.917 56.4313 311.917 58.3726C311.917 60.3139 311.641 62.1634 311.09 63.9211C310.539 65.6788 309.713 67.2266 308.611 68.5645C307.509 69.9024 306.132 70.978 304.479 71.7913C302.827 72.5783 300.898 72.9718 298.695 72.9718C296.491 72.9718 294.55 72.5783 292.871 71.7913C291.218 70.978 289.841 69.9024 288.739 68.5645C287.637 67.2266 286.811 65.6788 286.26 63.9211C285.709 62.1634 285.434 60.3139 285.434 58.3726ZM316.057 44.3244H319.047L335.417 68.0923H335.496V44.3244H338.172V72.4209H335.181L318.811 48.653H318.733V72.4209H316.057V44.3244ZM354.755 44.3244H364.475C368.751 44.4293 371.965 45.6361 374.116 47.9446C376.293 50.227 377.382 53.703 377.382 58.3726C377.382 63.0423 376.293 66.5314 374.116 68.84C371.965 71.1223 368.751 72.316 364.475 72.4209H354.755V44.3244ZM357.431 70.1385H363.137C365.157 70.1385 366.889 69.9287 368.331 69.5089C369.8 69.063 371.007 68.3678 371.952 67.4233C372.896 66.4789 373.591 65.259 374.037 63.7637C374.483 62.2684 374.706 60.4713 374.706 58.3726C374.706 56.2739 374.483 54.4769 374.037 52.9816C373.591 51.4862 372.896 50.2663 371.952 49.3219C371.007 48.3775 369.8 47.6954 368.331 47.2757C366.889 46.8297 365.157 46.6067 363.137 46.6067H357.431V70.1385ZM381.418 44.3244H384.094V61.7175C384.094 63.344 384.278 64.7344 384.645 65.8887C385.012 67.0167 385.55 67.948 386.258 68.6826C386.967 69.3909 387.833 69.9156 388.856 70.2566C389.879 70.5714 391.033 70.7288 392.319 70.7288C393.63 70.7288 394.798 70.5714 395.821 70.2566C396.844 69.9156 397.71 69.3909 398.418 68.6826C399.126 67.948 399.664 67.0167 400.031 65.8887C400.399 64.7344 400.582 63.344 400.582 61.7175V44.3244H403.258V62.3077C403.258 63.7506 403.048 65.1279 402.628 66.4396C402.235 67.725 401.592 68.8531 400.7 69.8237C399.835 70.7944 398.706 71.5683 397.316 72.1454C395.952 72.6964 394.286 72.9718 392.319 72.9718C390.377 72.9718 388.711 72.6964 387.321 72.1454C385.957 71.5683 384.829 70.7944 383.937 69.8237C383.071 68.8531 382.428 67.725 382.009 66.4396C381.615 65.1279 381.418 63.7506 381.418 62.3077V44.3244ZM422.26 56.6412H431.468C432.544 56.6412 433.475 56.5231 434.262 56.287C435.049 56.0247 435.705 55.6837 436.23 55.2639C436.755 54.8179 437.148 54.3064 437.41 53.7292C437.673 53.1521 437.804 52.5356 437.804 51.8797C437.804 48.3644 435.692 46.6067 431.468 46.6067H422.26V56.6412ZM419.584 44.3244H431.468C432.649 44.3244 433.777 44.4424 434.853 44.6785C435.954 44.8884 436.912 45.2688 437.725 45.8197C438.565 46.3444 439.234 47.0527 439.732 47.9446C440.23 48.8104 440.48 49.8991 440.48 51.2108C440.48 51.9453 440.362 52.6667 440.126 53.3751C439.889 54.0571 439.548 54.6868 439.102 55.2639C438.683 55.8148 438.171 56.287 437.568 56.6805C436.991 57.0741 436.335 57.3495 435.6 57.5069V57.5856C437.41 57.8217 438.853 58.5694 439.929 59.8286C441.004 61.0616 441.542 62.5963 441.542 64.4327C441.542 64.8786 441.503 65.3902 441.424 65.9674C441.345 66.5183 441.188 67.0954 440.952 67.6988C440.716 68.2759 440.375 68.8531 439.929 69.4302C439.483 70.0074 438.879 70.5189 438.119 70.9649C437.384 71.3847 436.466 71.7388 435.364 72.0274C434.289 72.2897 432.99 72.4209 431.468 72.4209H419.584V44.3244ZM422.26 70.1385H431.468C432.465 70.1385 433.41 70.0598 434.302 69.9024C435.194 69.7188 435.981 69.404 436.663 68.958C437.345 68.512 437.883 67.9218 438.276 67.1872C438.67 66.4264 438.866 65.482 438.866 64.354C438.866 62.5438 438.224 61.1928 436.938 60.3008C435.679 59.3826 433.856 58.9235 431.468 58.9235H422.26V70.1385ZM445.556 44.3244H448.232V61.7175C448.232 63.344 448.415 64.7344 448.782 65.8887C449.15 67.0167 449.688 67.948 450.396 68.6826C451.104 69.3909 451.97 69.9156 452.993 70.2566C454.016 70.5714 455.17 70.7288 456.456 70.7288C457.768 70.7288 458.935 70.5714 459.958 70.2566C460.981 69.9156 461.847 69.3909 462.555 68.6826C463.264 67.948 463.801 67.0167 464.169 65.8887C464.536 64.7344 464.72 63.344 464.72 61.7175V44.3244H467.395V62.3077C467.395 63.7506 467.186 65.1279 466.766 66.4396C466.372 67.725 465.73 68.8531 464.838 69.8237C463.972 70.7944 462.844 71.5683 461.453 72.1454C460.089 72.6964 458.423 72.9718 456.456 72.9718C454.515 72.9718 452.849 72.6964 451.458 72.1454C450.094 71.5683 448.966 70.7944 448.074 69.8237C447.208 68.8531 446.566 67.725 446.146 66.4396C445.752 65.1279 445.556 63.7506 445.556 62.3077V44.3244ZM472.77 44.3244H482.489C486.765 44.4293 489.979 45.6361 492.13 47.9446C494.308 50.227 495.396 53.703 495.396 58.3726C495.396 63.0423 494.308 66.5314 492.13 68.84C489.979 71.1223 486.765 72.316 482.489 72.4209H472.77V44.3244ZM475.445 70.1385H481.151C483.171 70.1385 484.903 69.9287 486.346 69.5089C487.815 69.063 489.021 68.3678 489.966 67.4233C490.91 66.4789 491.606 65.259 492.052 63.7637C492.497 62.2684 492.72 60.4713 492.72 58.3726C492.72 56.2739 492.497 54.4769 492.052 52.9816C491.606 51.4862 490.91 50.2663 489.966 49.3219C489.021 48.3775 487.815 47.6954 486.346 47.2757C484.903 46.8297 483.171 46.6067 481.151 46.6067H475.445V70.1385ZM523.712 72.4209H521.784L521.43 67.3053H521.351C520.879 68.3022 520.289 69.1679 519.58 69.9024C518.898 70.6108 518.137 71.201 517.298 71.6732C516.458 72.1192 515.553 72.4471 514.583 72.657C513.638 72.8669 512.654 72.9718 511.631 72.9718C509.428 72.9718 507.486 72.5783 505.807 71.7913C504.155 70.978 502.777 69.9024 501.676 68.5645C500.574 67.2266 499.747 65.6788 499.196 63.9211C498.646 62.1634 498.37 60.3139 498.37 58.3726C498.37 56.4313 498.646 54.5818 499.196 52.8242C499.747 51.0665 500.574 49.5187 501.676 48.1807C502.777 46.8166 504.155 45.741 505.807 44.954C507.486 44.1407 509.428 43.7341 511.631 43.7341C513.1 43.7341 514.491 43.9309 515.803 44.3244C517.114 44.7179 518.282 45.3081 519.305 46.0952C520.328 46.8822 521.194 47.8528 521.902 49.0071C522.61 50.1614 523.096 51.5125 523.358 53.0603H520.682C520.603 52.247 520.328 51.4338 519.856 50.6205C519.41 49.781 518.793 49.0202 518.006 48.3382C517.245 47.6561 516.327 47.1052 515.252 46.6854C514.176 46.2394 512.969 46.0165 511.631 46.0165C509.769 46.0165 508.168 46.3706 506.831 47.0789C505.493 47.7872 504.391 48.7317 503.525 49.9122C502.686 51.0665 502.056 52.3782 501.636 53.8473C501.243 55.3164 501.046 56.8248 501.046 58.3726C501.046 59.8942 501.243 61.4026 501.636 62.898C502.056 64.3671 502.686 65.6919 503.525 66.8724C504.391 68.0267 505.493 68.958 506.831 69.6663C508.168 70.3747 509.769 70.7288 511.631 70.7288C513.179 70.7288 514.556 70.4796 515.763 69.9811C516.996 69.4565 518.032 68.735 518.872 67.8168C519.711 66.8987 520.341 65.8099 520.761 64.5507C521.18 63.2915 521.377 61.9142 521.351 60.4189H511.789V58.1365H523.712V72.4209ZM528.875 44.3244H548.275V46.6067H531.551V56.7592H547.213V59.0416H531.551V70.1385H548.472V72.4209H528.875V44.3244ZM549.211 44.3244H571.444V46.6067H561.646V72.4209H558.97V46.6067H549.211V44.3244ZM587.695 58.0972H596.904C598.766 58.0972 600.275 57.625 601.429 56.6805C602.583 55.7361 603.16 54.2933 603.16 52.3519C603.16 50.4106 602.583 48.9678 601.429 48.0233C600.275 47.0789 598.766 46.6067 596.904 46.6067H587.695V58.0972ZM585.02 44.3244H597.494C598.753 44.3244 599.894 44.508 600.917 44.8753C601.94 45.2163 602.819 45.741 603.554 46.4493C604.288 47.1314 604.852 47.9709 605.246 48.9678C605.639 49.9647 605.836 51.0927 605.836 52.3519C605.836 53.6112 605.639 54.7392 605.246 55.7361C604.852 56.733 604.288 57.5856 603.554 58.2939C602.819 58.976 601.94 59.5007 600.917 59.868C599.894 60.209 598.753 60.3795 597.494 60.3795H587.695V72.4209H585.02V44.3244ZM609.531 44.3244H612.206V61.7175C612.206 63.344 612.39 64.7344 612.757 65.8887C613.125 67.0167 613.662 67.948 614.371 68.6826C615.079 69.3909 615.945 69.9156 616.968 70.2566C617.991 70.5714 619.145 70.7288 620.431 70.7288C621.742 70.7288 622.91 70.5714 623.933 70.2566C624.956 69.9156 625.822 69.3909 626.53 68.6826C627.238 67.948 627.776 67.0167 628.143 65.8887C628.511 64.7344 628.694 63.344 628.694 61.7175V44.3244H631.37V62.3077C631.37 63.7506 631.16 65.1279 630.741 66.4396C630.347 67.725 629.704 68.8531 628.812 69.8237C627.947 70.7944 626.819 71.5683 625.428 72.1454C624.064 72.6964 622.398 72.9718 620.431 72.9718C618.489 72.9718 616.824 72.6964 615.433 72.1454C614.069 71.5683 612.941 70.7944 612.049 69.8237C611.183 68.8531 610.541 67.725 610.121 66.4396C609.727 65.1279 609.531 63.7506 609.531 62.3077V44.3244ZM639.42 56.6412H648.628C649.704 56.6412 650.635 56.5231 651.422 56.287C652.209 56.0247 652.865 55.6837 653.39 55.2639C653.915 54.8179 654.308 54.3064 654.57 53.7292C654.833 53.1521 654.964 52.5356 654.964 51.8797C654.964 48.3644 652.852 46.6067 648.628 46.6067H639.42V56.6412ZM636.744 44.3244H648.628C649.809 44.3244 650.937 44.4424 652.013 44.6785C653.114 44.8884 654.072 45.2688 654.885 45.8197C655.725 46.3444 656.394 47.0527 656.892 47.9446C657.39 48.8104 657.64 49.8991 657.64 51.2108C657.64 51.9453 657.522 52.6667 657.286 53.3751C657.049 54.0571 656.708 54.6868 656.262 55.2639C655.843 55.8148 655.331 56.287 654.728 56.6805C654.151 57.0741 653.495 57.3495 652.76 57.5069V57.5856C654.57 57.8217 656.013 58.5694 657.089 59.8286C658.164 61.0616 658.702 62.5963 658.702 64.4327C658.702 64.8786 658.663 65.3902 658.584 65.9674C658.505 66.5183 658.348 67.0954 658.112 67.6988C657.876 68.2759 657.535 68.8531 657.089 69.4302C656.643 70.0074 656.039 70.5189 655.279 70.9649C654.544 71.3847 653.626 71.7388 652.524 72.0274C651.449 72.2897 650.15 72.4209 648.628 72.4209H636.744V44.3244ZM639.42 70.1385H648.628C649.625 70.1385 650.57 70.0598 651.462 69.9024C652.354 69.7188 653.141 69.404 653.823 68.958C654.505 68.512 655.043 67.9218 655.436 67.1872C655.83 66.4264 656.026 65.482 656.026 64.354C656.026 62.5438 655.384 61.1928 654.098 60.3008C652.839 59.3826 651.016 58.9235 648.628 58.9235H639.42V70.1385ZM544.362 92.3244H554.082C558.358 92.4293 561.572 93.6361 563.723 95.9446C565.9 98.227 566.989 101.703 566.989 106.373C566.989 111.042 565.9 114.531 563.723 116.84C561.572 119.122 558.358 120.316 554.082 120.421H544.362V92.3244ZM547.038 118.139H552.744C554.764 118.139 556.495 117.929 557.938 117.509C559.407 117.063 560.614 116.368 561.558 115.423C562.503 114.479 563.198 113.259 563.644 111.764C564.09 110.268 564.313 108.471 564.313 106.373C564.313 104.274 564.09 102.477 563.644 100.982C563.198 99.4862 562.503 98.2663 561.558 97.3219C560.614 96.3775 559.407 95.6954 557.938 95.2757C556.495 94.8297 554.764 94.6067 552.744 94.6067H547.038V118.139ZM571.3 92.3244H590.7V94.6067H573.976V104.759H589.638V107.042H573.976V118.139H590.897V120.421H571.3V92.3244ZM595.886 111.173C595.86 112.616 596.083 113.823 596.555 114.794C597.027 115.764 597.67 116.538 598.483 117.115C599.323 117.693 600.306 118.112 601.434 118.375C602.562 118.611 603.769 118.729 605.055 118.729C605.789 118.729 606.589 118.624 607.455 118.414C608.321 118.204 609.121 117.876 609.855 117.43C610.616 116.958 611.246 116.368 611.744 115.659C612.243 114.925 612.492 114.046 612.492 113.023C612.492 112.236 612.308 111.554 611.941 110.977C611.6 110.4 611.141 109.914 610.564 109.521C610.013 109.127 609.396 108.812 608.714 108.576C608.032 108.314 607.363 108.104 606.707 107.947L600.451 106.412C599.637 106.202 598.837 105.94 598.05 105.625C597.289 105.31 596.62 104.89 596.043 104.366C595.466 103.841 594.994 103.198 594.627 102.438C594.286 101.677 594.115 100.745 594.115 99.6436C594.115 98.9615 594.246 98.1614 594.509 97.2432C594.771 96.325 595.256 95.4593 595.965 94.6461C596.699 93.8328 597.696 93.1507 598.955 92.5998C600.214 92.0227 601.828 91.7341 603.795 91.7341C605.186 91.7341 606.511 91.9177 607.77 92.285C609.029 92.6523 610.131 93.2032 611.075 93.9377C612.02 94.6723 612.767 95.5905 613.318 96.6923C613.895 97.7679 614.184 99.0271 614.184 100.47H611.508C611.456 99.3944 611.207 98.4631 610.761 97.6761C610.341 96.8628 609.777 96.1939 609.068 95.6692C608.386 95.1183 607.586 94.7116 606.668 94.4493C605.776 94.1607 604.832 94.0165 603.835 94.0165C602.917 94.0165 602.025 94.1214 601.159 94.3313C600.319 94.5149 599.572 94.8297 598.916 95.2757C598.286 95.6954 597.775 96.2595 597.381 96.9678C596.988 97.6761 596.791 98.5549 596.791 99.6043C596.791 100.26 596.896 100.837 597.106 101.336C597.342 101.808 597.657 102.215 598.05 102.556C598.444 102.897 598.89 103.172 599.388 103.382C599.913 103.592 600.464 103.762 601.041 103.894L607.888 105.586C608.885 105.848 609.816 106.176 610.682 106.569C611.574 106.937 612.348 107.409 613.004 107.986C613.686 108.537 614.21 109.219 614.578 110.032C614.971 110.846 615.168 111.829 615.168 112.984C615.168 113.298 615.128 113.718 615.05 114.243C614.997 114.767 614.84 115.332 614.578 115.935C614.341 116.512 613.987 117.102 613.515 117.706C613.069 118.309 612.439 118.86 611.626 119.358C610.839 119.831 609.855 120.211 608.675 120.5C607.494 120.814 606.078 120.972 604.425 120.972C602.772 120.972 601.238 120.788 599.821 120.421C598.404 120.027 597.198 119.437 596.201 118.65C595.204 117.863 594.43 116.853 593.879 115.62C593.354 114.387 593.131 112.905 593.21 111.173H595.886ZM47.7541 140.324H50.5874L59.7168 165.47H59.7955L68.8462 140.324H71.6795L61.2515 168.421H58.1428L47.7541 140.324ZM74.1497 140.324H93.5497V142.607H76.8255V152.759H92.4872V155.042H76.8255V166.139H93.7464V168.421H74.1497V140.324ZM97.4365 140.324H100.427L116.797 164.092H116.876V140.324H119.552V168.421H116.561L100.191 144.653H100.112V168.421H97.4365V140.324ZM122.192 140.324H144.425V142.607H134.627V168.421H131.951V142.607H122.192V140.324ZM147.049 140.324H166.449V142.607H149.725V152.759H165.386V155.042H149.725V166.139H166.645V168.421H147.049V140.324ZM171.634 159.173C171.608 160.616 171.831 161.823 172.303 162.794C172.775 163.764 173.418 164.538 174.231 165.115C175.071 165.693 176.055 166.112 177.183 166.375C178.311 166.611 179.517 166.729 180.803 166.729C181.537 166.729 182.338 166.624 183.203 166.414C184.069 166.204 184.869 165.876 185.604 165.43C186.364 164.958 186.994 164.368 187.493 163.659C187.991 162.925 188.24 162.046 188.24 161.023C188.24 160.236 188.057 159.554 187.689 158.977C187.348 158.4 186.889 157.914 186.312 157.521C185.761 157.127 185.145 156.812 184.463 156.576C183.78 156.314 183.111 156.104 182.456 155.947L176.199 154.412C175.386 154.202 174.585 153.94 173.798 153.625C173.038 153.31 172.369 152.89 171.792 152.366C171.214 151.841 170.742 151.198 170.375 150.438C170.034 149.677 169.863 148.745 169.863 147.644C169.863 146.962 169.994 146.161 170.257 145.243C170.519 144.325 171.004 143.459 171.713 142.646C172.447 141.833 173.444 141.151 174.703 140.6C175.963 140.023 177.576 139.734 179.544 139.734C180.934 139.734 182.259 139.918 183.518 140.285C184.777 140.652 185.879 141.203 186.824 141.938C187.768 142.672 188.516 143.59 189.067 144.692C189.644 145.768 189.932 147.027 189.932 148.47H187.256C187.204 147.394 186.955 146.463 186.509 145.676C186.089 144.863 185.525 144.194 184.817 143.669C184.135 143.118 183.334 142.712 182.416 142.449C181.524 142.161 180.58 142.016 179.583 142.016C178.665 142.016 177.773 142.121 176.907 142.331C176.068 142.515 175.32 142.83 174.664 143.276C174.035 143.695 173.523 144.259 173.129 144.968C172.736 145.676 172.539 146.555 172.539 147.604C172.539 148.26 172.644 148.837 172.854 149.336C173.09 149.808 173.405 150.215 173.798 150.556C174.192 150.897 174.638 151.172 175.136 151.382C175.661 151.592 176.212 151.762 176.789 151.894L183.636 153.586C184.633 153.848 185.564 154.176 186.43 154.569C187.322 154.937 188.096 155.409 188.752 155.986C189.434 156.537 189.959 157.219 190.326 158.032C190.719 158.846 190.916 159.829 190.916 160.984C190.916 161.298 190.877 161.718 190.798 162.243C190.746 162.767 190.588 163.332 190.326 163.935C190.09 164.512 189.736 165.102 189.263 165.706C188.817 166.309 188.188 166.86 187.374 167.358C186.587 167.831 185.604 168.211 184.423 168.5C183.243 168.814 181.826 168.972 180.173 168.972C178.521 168.972 176.986 168.788 175.569 168.421C174.153 168.027 172.946 167.437 171.949 166.65C170.952 165.863 170.178 164.853 169.627 163.62C169.103 162.387 168.88 160.905 168.958 159.173H171.634ZM229.527 170.192L225.159 166.926C223.244 168.29 220.818 168.972 217.879 168.972C215.676 168.972 213.734 168.578 212.055 167.791C210.403 166.978 209.025 165.902 207.924 164.565C206.822 163.227 205.995 161.679 205.445 159.921C204.894 158.163 204.618 156.314 204.618 154.373C204.618 152.431 204.894 150.582 205.445 148.824C205.995 147.066 206.822 145.519 207.924 144.181C209.025 142.817 210.403 141.741 212.055 140.954C213.734 140.141 215.676 139.734 217.879 139.734C220.083 139.734 222.011 140.141 223.664 140.954C225.317 141.741 226.694 142.817 227.796 144.181C228.898 145.519 229.724 147.066 230.275 148.824C230.826 150.582 231.101 152.431 231.101 154.373C231.101 156.576 230.747 158.649 230.039 160.59C229.331 162.505 228.268 164.145 226.851 165.509L230.865 168.539L229.527 170.192ZM224.845 163.974C226.104 162.794 227.009 161.351 227.56 159.646C228.137 157.94 228.425 156.183 228.425 154.373C228.425 152.825 228.216 151.316 227.796 149.847C227.402 148.378 226.773 147.066 225.907 145.912C225.068 144.732 223.979 143.787 222.641 143.079C221.329 142.371 219.742 142.016 217.879 142.016C216.017 142.016 214.417 142.371 213.079 143.079C211.741 143.787 210.639 144.732 209.773 145.912C208.934 147.066 208.304 148.378 207.884 149.847C207.491 151.316 207.294 152.825 207.294 154.373C207.294 155.894 207.491 157.403 207.884 158.898C208.304 160.367 208.934 161.692 209.773 162.872C210.639 164.027 211.741 164.958 213.079 165.666C214.417 166.375 216.017 166.729 217.879 166.729C219.873 166.729 221.605 166.27 223.074 165.352L219.375 162.558L220.752 160.866L224.845 163.974ZM235.005 140.324H237.681V157.717C237.681 159.344 237.865 160.734 238.232 161.889C238.599 163.017 239.137 163.948 239.846 164.683C240.554 165.391 241.42 165.916 242.443 166.257C243.466 166.571 244.62 166.729 245.906 166.729C247.217 166.729 248.385 166.571 249.408 166.257C250.431 165.916 251.297 165.391 252.005 164.683C252.713 163.948 253.251 163.017 253.618 161.889C253.986 160.734 254.169 159.344 254.169 157.717V140.324H256.845V158.308C256.845 159.751 256.635 161.128 256.215 162.44C255.822 163.725 255.179 164.853 254.287 165.824C253.422 166.794 252.294 167.568 250.903 168.145C249.539 168.696 247.873 168.972 245.906 168.972C243.964 168.972 242.298 168.696 240.908 168.145C239.544 167.568 238.416 166.794 237.524 165.824C236.658 164.853 236.015 163.725 235.596 162.44C235.202 161.128 235.005 159.751 235.005 158.308V140.324ZM262.416 140.324H265.092V168.421H262.416V140.324ZM283.154 159.173C283.128 160.616 283.351 161.823 283.823 162.794C284.295 163.764 284.938 164.538 285.751 165.115C286.591 165.693 287.574 166.112 288.702 166.375C289.83 166.611 291.037 166.729 292.323 166.729C293.057 166.729 293.857 166.624 294.723 166.414C295.589 166.204 296.389 165.876 297.123 165.43C297.884 164.958 298.514 164.368 299.012 163.659C299.511 162.925 299.76 162.046 299.76 161.023C299.76 160.236 299.576 159.554 299.209 158.977C298.868 158.4 298.409 157.914 297.832 157.521C297.281 157.127 296.664 156.812 295.982 156.576C295.3 156.314 294.631 156.104 293.975 155.947L287.719 154.412C286.905 154.202 286.105 153.94 285.318 153.625C284.557 153.31 283.888 152.89 283.311 152.366C282.734 151.841 282.262 151.198 281.895 150.438C281.554 149.677 281.383 148.745 281.383 147.644C281.383 146.962 281.514 146.161 281.777 145.243C282.039 144.325 282.524 143.459 283.233 142.646C283.967 141.833 284.964 141.151 286.223 140.6C287.483 140.023 289.096 139.734 291.063 139.734C292.454 139.734 293.779 139.918 295.038 140.285C296.297 140.652 297.399 141.203 298.343 141.938C299.288 142.672 300.035 143.59 300.586 144.692C301.164 145.768 301.452 147.027 301.452 148.47H298.776C298.724 147.394 298.475 146.463 298.029 145.676C297.609 144.863 297.045 144.194 296.336 143.669C295.654 143.118 294.854 142.712 293.936 142.449C293.044 142.161 292.1 142.016 291.103 142.016C290.185 142.016 289.293 142.121 288.427 142.331C287.587 142.515 286.84 142.83 286.184 143.276C285.554 143.695 285.043 144.259 284.649 144.968C284.256 145.676 284.059 146.555 284.059 147.604C284.059 148.26 284.164 148.837 284.374 149.336C284.61 149.808 284.925 150.215 285.318 150.556C285.712 150.897 286.158 151.172 286.656 151.382C287.181 151.592 287.732 151.762 288.309 151.894L295.156 153.586C296.153 153.848 297.084 154.176 297.95 154.569C298.842 154.937 299.616 155.409 300.272 155.986C300.954 156.537 301.478 157.219 301.846 158.032C302.239 158.846 302.436 159.829 302.436 160.984C302.436 161.298 302.397 161.718 302.318 162.243C302.265 162.767 302.108 163.332 301.846 163.935C301.609 164.512 301.255 165.102 300.783 165.706C300.337 166.309 299.708 166.86 298.894 167.358C298.107 167.831 297.123 168.211 295.943 168.5C294.762 168.814 293.346 168.972 291.693 168.972C290.04 168.972 288.506 168.788 287.089 168.421C285.672 168.027 284.466 167.437 283.469 166.65C282.472 165.863 281.698 164.853 281.147 163.62C280.622 162.387 280.399 160.905 280.478 159.173H283.154ZM303.69 140.324H325.924V142.607H316.125V168.421H313.45V142.607H303.69V140.324ZM329.831 157.403H340.889L335.459 143L329.831 157.403ZM334.081 140.324H337.072L348.09 168.421H345.218L341.794 159.685H329.005L325.621 168.421H322.788L334.081 140.324ZM374.648 168.421H372.719L372.365 163.305H372.286C371.814 164.302 371.224 165.168 370.516 165.902C369.834 166.611 369.073 167.201 368.233 167.673C367.394 168.119 366.489 168.447 365.518 168.657C364.574 168.867 363.59 168.972 362.567 168.972C360.363 168.972 358.422 168.578 356.743 167.791C355.09 166.978 353.713 165.902 352.611 164.565C351.509 163.227 350.683 161.679 350.132 159.921C349.581 158.163 349.306 156.314 349.306 154.373C349.306 152.431 349.581 150.582 350.132 148.824C350.683 147.066 351.509 145.519 352.611 144.181C353.713 142.817 355.09 141.741 356.743 140.954C358.422 140.141 360.363 139.734 362.567 139.734C364.036 139.734 365.426 139.931 366.738 140.324C368.05 140.718 369.217 141.308 370.24 142.095C371.263 142.882 372.129 143.853 372.837 145.007C373.546 146.161 374.031 147.512 374.293 149.06H371.618C371.539 148.247 371.263 147.434 370.791 146.621C370.345 145.781 369.729 145.02 368.942 144.338C368.181 143.656 367.263 143.105 366.187 142.685C365.111 142.239 363.905 142.016 362.567 142.016C360.704 142.016 359.104 142.371 357.766 143.079C356.428 143.787 355.326 144.732 354.461 145.912C353.621 147.066 352.991 148.378 352.572 149.847C352.178 151.316 351.981 152.825 351.981 154.373C351.981 155.894 352.178 157.403 352.572 158.898C352.991 160.367 353.621 161.692 354.461 162.872C355.326 164.027 356.428 164.958 357.766 165.666C359.104 166.375 360.704 166.729 362.567 166.729C364.115 166.729 365.492 166.48 366.699 165.981C367.932 165.456 368.968 164.735 369.807 163.817C370.647 162.899 371.276 161.81 371.696 160.551C372.116 159.291 372.313 157.914 372.286 156.419H362.724V154.137H374.648V168.421ZM379.771 140.324H382.762L399.132 164.092H399.211V140.324H401.887V168.421H398.896L382.526 144.653H382.447V168.421H379.771V140.324ZM407.518 140.324H426.918V142.607H410.194V152.759H425.855V155.042H410.194V166.139H427.115V168.421H407.518V140.324ZM430.805 140.324H433.795L450.165 164.092H450.244V140.324H452.92V168.421H449.929L433.559 144.653H433.48V168.421H430.805V140.324ZM455.56 140.324H477.794V142.607H467.995V168.421H465.319V142.607H455.56V140.324Z" fill="white"/>
<path d="M54.916 111.095C54.916 112.039 55.0865 112.839 55.4276 113.495C55.7686 114.151 56.2146 114.689 56.7655 115.109C57.3426 115.502 58.0116 115.804 58.7724 116.014C59.5332 116.197 60.3202 116.289 61.1334 116.289C61.6843 116.289 62.2746 116.25 62.9042 116.171C63.5338 116.066 64.1241 115.882 64.675 115.62C65.2259 115.358 65.685 115.004 66.0523 114.558C66.4196 114.085 66.6032 113.495 66.6032 112.787C66.6032 112.026 66.354 111.41 65.8555 110.937C65.3833 110.465 64.7537 110.072 63.9667 109.757C63.1797 109.442 62.2877 109.167 61.2908 108.93C60.2939 108.694 59.2839 108.432 58.2608 108.143C57.2115 107.881 56.1883 107.566 55.1914 107.199C54.1946 106.805 53.3026 106.307 52.5156 105.704C51.7286 105.1 51.0858 104.353 50.5874 103.461C50.1152 102.542 49.8791 101.441 49.8791 100.155C49.8791 98.7123 50.1808 97.4662 50.7841 96.4169C51.4138 95.3413 52.227 94.4493 53.2239 93.741C54.2208 93.0327 55.3489 92.508 56.6081 92.167C57.8673 91.8259 59.1265 91.6554 60.3858 91.6554C61.8549 91.6554 63.2584 91.8259 64.5963 92.167C65.9605 92.4818 67.1672 93.0064 68.2166 93.741C69.266 94.4755 70.0923 95.42 70.6957 96.5743C71.3253 97.7023 71.6401 99.0796 71.6401 100.706H65.6588C65.6063 99.8666 65.4227 99.1714 65.1079 98.6205C64.8193 98.0696 64.4258 97.6367 63.9273 97.3219C63.4289 97.0071 62.8518 96.7841 62.1959 96.653C61.5663 96.5218 60.8711 96.4562 60.1103 96.4562C59.6119 96.4562 59.1134 96.5087 58.615 96.6136C58.1165 96.7185 57.6574 96.9022 57.2377 97.1645C56.8442 97.4269 56.5163 97.7548 56.2539 98.1483C55.9916 98.5418 55.8604 99.0402 55.8604 99.6436C55.8604 100.195 55.9653 100.641 56.1752 100.982C56.3851 101.323 56.7917 101.637 57.3951 101.926C58.0247 102.215 58.8773 102.503 59.9529 102.792C61.0547 103.08 62.4845 103.448 64.2422 103.894C64.7668 103.998 65.4883 104.195 66.4065 104.484C67.3509 104.746 68.2822 105.179 69.2004 105.782C70.1186 106.386 70.9056 107.199 71.5614 108.222C72.2435 109.219 72.5845 110.504 72.5845 112.079C72.5845 113.364 72.3353 114.558 71.8369 115.659C71.3384 116.761 70.5908 117.719 69.5939 118.532C68.6232 119.319 67.4033 119.936 65.9342 120.382C64.4914 120.828 62.8124 121.051 60.8973 121.051C59.3495 121.051 57.8411 120.854 56.372 120.46C54.9291 120.093 53.6436 119.503 52.5156 118.689C51.4138 117.876 50.5349 116.84 49.8791 115.581C49.2232 114.322 48.9084 112.826 48.9347 111.095H54.916ZM83.3436 109.56H90.6235L87.082 99.2501H87.0033L83.3436 109.56ZM83.9339 92.3244H90.2694L100.776 120.421H94.3619L92.2369 114.164H81.7302L79.5266 120.421H73.3092L83.9339 92.3244ZM103.199 92.3244H109.338L121.064 111.173H121.143V92.3244H126.928V120.421H120.749L109.062 101.611H108.984V120.421H103.199V92.3244ZM136.577 111.095C136.577 112.039 136.747 112.839 137.088 113.495C137.429 114.151 137.875 114.689 138.426 115.109C139.003 115.502 139.672 115.804 140.433 116.014C141.194 116.197 141.981 116.289 142.794 116.289C143.345 116.289 143.935 116.25 144.565 116.171C145.195 116.066 145.785 115.882 146.336 115.62C146.887 115.358 147.346 115.004 147.713 114.558C148.08 114.085 148.264 113.495 148.264 112.787C148.264 112.026 148.015 111.41 147.516 110.937C147.044 110.465 146.414 110.072 145.627 109.757C144.84 109.442 143.949 109.167 142.952 108.93C141.955 108.694 140.945 108.432 139.922 108.143C138.872 107.881 137.849 107.566 136.852 107.199C135.855 106.805 134.963 106.307 134.176 105.704C133.389 105.1 132.747 104.353 132.248 103.461C131.776 102.542 131.54 101.441 131.54 100.155C131.54 98.7123 131.842 97.4662 132.445 96.4169C133.075 95.3413 133.888 94.4493 134.885 93.741C135.882 93.0327 137.01 92.508 138.269 92.167C139.528 91.8259 140.787 91.6554 142.047 91.6554C143.516 91.6554 144.919 91.8259 146.257 92.167C147.621 92.4818 148.828 93.0064 149.877 93.741C150.927 94.4755 151.753 95.42 152.356 96.5743C152.986 97.7023 153.301 99.0796 153.301 100.706H147.32C147.267 99.8666 147.083 99.1714 146.769 98.6205C146.48 98.0696 146.087 97.6367 145.588 97.3219C145.09 97.0071 144.513 96.7841 143.857 96.653C143.227 96.5218 142.532 96.4562 141.771 96.4562C141.273 96.4562 140.774 96.5087 140.276 96.6136C139.777 96.7185 139.318 96.9022 138.898 97.1645C138.505 97.4269 138.177 97.7548 137.915 98.1483C137.652 98.5418 137.521 99.0402 137.521 99.6436C137.521 100.195 137.626 100.641 137.836 100.982C138.046 101.323 138.452 101.637 139.056 101.926C139.685 102.215 140.538 102.503 141.614 102.792C142.716 103.08 144.145 103.448 145.903 103.894C146.428 103.998 147.149 104.195 148.067 104.484C149.012 104.746 149.943 105.179 150.861 105.782C151.779 106.386 152.566 107.199 153.222 108.222C153.904 109.219 154.245 110.504 154.245 112.079C154.245 113.364 153.996 114.558 153.498 115.659C152.999 116.761 152.252 117.719 151.255 118.532C150.284 119.319 149.064 119.936 147.595 120.382C146.152 120.828 144.473 121.051 142.558 121.051C141.01 121.051 139.502 120.854 138.033 120.46C136.59 120.093 135.304 119.503 134.176 118.689C133.075 117.876 132.196 116.84 131.54 115.581C130.884 114.322 130.569 112.826 130.595 111.095H136.577ZM175.051 105.035H181.82C183.236 105.035 184.299 104.72 185.007 104.09C185.716 103.461 186.07 102.438 186.07 101.021C186.07 99.6567 185.716 98.673 185.007 98.0696C184.299 97.44 183.236 97.1252 181.82 97.1252H175.051V105.035ZM168.873 92.3244H184.023C185.283 92.3244 186.411 92.5342 187.408 92.954C188.431 93.3475 189.297 93.8984 190.005 94.6067C190.739 95.315 191.29 96.1414 191.658 97.0858C192.051 98.004 192.248 99.0009 192.248 100.076C192.248 101.729 191.894 103.159 191.185 104.366C190.503 105.572 189.375 106.491 187.801 107.12V107.199C188.562 107.409 189.192 107.737 189.69 108.183C190.188 108.603 190.595 109.114 190.91 109.717C191.225 110.295 191.448 110.937 191.579 111.646C191.736 112.354 191.841 113.062 191.894 113.771C191.92 114.217 191.946 114.741 191.972 115.345C191.999 115.948 192.038 116.565 192.09 117.194C192.169 117.824 192.274 118.427 192.405 119.004C192.563 119.555 192.786 120.027 193.074 120.421H186.896C186.555 119.529 186.345 118.466 186.266 117.233C186.188 116 186.07 114.82 185.912 113.692C185.702 112.223 185.256 111.147 184.574 110.465C183.892 109.783 182.777 109.442 181.23 109.442H175.051V120.421H168.873V92.3244ZM197.272 92.3244H218.286V97.5187H203.45V103.539H217.066V108.34H203.45V115.227H218.6V120.421H197.272V92.3244ZM214.665 82.8408H208.526L204.355 89.8059H208.251L214.665 82.8408ZM222.789 92.3244H243.802V97.5187H228.967V103.539H242.582V108.34H228.967V115.227H244.117V120.421H222.789V92.3244ZM248.305 92.3244H254.483V115.227H268.178V120.421H248.305V92.3244ZM288.762 115.227H294.271C295.163 115.227 296.029 115.082 296.868 114.794C297.708 114.505 298.455 114.033 299.111 113.377C299.767 112.695 300.292 111.816 300.685 110.741C301.079 109.665 301.275 108.353 301.275 106.805C301.275 105.389 301.131 104.117 300.842 102.988C300.58 101.834 300.134 100.85 299.505 100.037C298.875 99.2239 298.035 98.6074 296.986 98.1876C295.963 97.7417 294.691 97.5187 293.169 97.5187H288.762V115.227ZM282.584 92.3244H294.704C296.514 92.3244 298.193 92.6129 299.741 93.1901C301.315 93.7672 302.666 94.6329 303.794 95.7872C304.948 96.9415 305.84 98.3844 306.47 100.116C307.125 101.847 307.453 103.88 307.453 106.215C307.453 108.261 307.191 110.15 306.666 111.882C306.142 113.613 305.342 115.109 304.266 116.368C303.217 117.627 301.892 118.624 300.292 119.358C298.718 120.067 296.855 120.421 294.704 120.421H282.584V92.3244ZM311.751 92.3244H317.929V120.421H311.751V92.3244ZM323.356 92.3244H343.111V97.5187H329.534V104.012H341.3V108.812H329.534V120.421H323.356V92.3244ZM346.683 92.3244H366.437V97.5187H352.861V104.012H364.627V108.812H352.861V120.421H346.683V92.3244ZM370.009 92.3244H391.022V97.5187H376.187V103.539H389.802V108.34H376.187V115.227H391.337V120.421H370.009V92.3244ZM401.703 105.035H408.472C409.888 105.035 410.951 104.72 411.659 104.09C412.367 103.461 412.722 102.438 412.722 101.021C412.722 99.6567 412.367 98.673 411.659 98.0696C410.951 97.44 409.888 97.1252 408.472 97.1252H401.703V105.035ZM395.525 92.3244H410.675C411.935 92.3244 413.063 92.5342 414.06 92.954C415.083 93.3475 415.948 93.8984 416.657 94.6067C417.391 95.315 417.942 96.1414 418.309 97.0858C418.703 98.004 418.9 99.0009 418.9 100.076C418.9 101.729 418.546 103.159 417.837 104.366C417.155 105.572 416.027 106.491 414.453 107.12V107.199C415.214 107.409 415.843 107.737 416.342 108.183C416.84 108.603 417.247 109.114 417.562 109.717C417.877 110.295 418.1 110.937 418.231 111.646C418.388 112.354 418.493 113.062 418.546 113.771C418.572 114.217 418.598 114.741 418.624 115.345C418.651 115.948 418.69 116.565 418.742 117.194C418.821 117.824 418.926 118.427 419.057 119.004C419.215 119.555 419.438 120.027 419.726 120.421H413.548C413.207 119.529 412.997 118.466 412.918 117.233C412.84 116 412.722 114.82 412.564 113.692C412.354 112.223 411.908 111.147 411.226 110.465C410.544 109.783 409.429 109.442 407.881 109.442H401.703V120.421H395.525V92.3244ZM423.924 92.3244H444.937V97.5187H430.102V103.539H443.718V108.34H430.102V115.227H445.252V120.421H423.924V92.3244ZM449.441 92.3244H455.579L467.306 111.173H467.385V92.3244H473.169V120.421H466.991L455.304 101.611H455.225V120.421H449.441V92.3244ZM497.339 101.769C497.234 101.06 496.998 100.418 496.631 99.8404C496.263 99.237 495.804 98.7123 495.253 98.2663C494.702 97.8204 494.073 97.4793 493.365 97.2432C492.682 96.9809 491.961 96.8497 491.2 96.8497C489.81 96.8497 488.629 97.1252 487.659 97.6761C486.688 98.2008 485.901 98.9222 485.298 99.8404C484.694 100.732 484.248 101.755 483.96 102.91C483.697 104.064 483.566 105.258 483.566 106.491C483.566 107.671 483.697 108.826 483.96 109.954C484.248 111.055 484.694 112.052 485.298 112.944C485.901 113.836 486.688 114.558 487.659 115.109C488.629 115.633 489.81 115.896 491.2 115.896C493.089 115.896 494.558 115.318 495.608 114.164C496.683 113.01 497.339 111.488 497.575 109.599H503.556C503.399 111.357 502.992 112.944 502.337 114.361C501.681 115.777 500.815 116.984 499.739 117.981C498.664 118.978 497.405 119.739 495.962 120.263C494.519 120.788 492.932 121.051 491.2 121.051C489.049 121.051 487.108 120.683 485.376 119.949C483.671 119.188 482.228 118.152 481.048 116.84C479.867 115.528 478.962 113.994 478.332 112.236C477.703 110.452 477.388 108.537 477.388 106.491C477.388 104.392 477.703 102.451 478.332 100.667C478.962 98.8566 479.867 97.2826 481.048 95.9446C482.228 94.6067 483.671 93.5574 485.376 92.7966C487.108 92.0358 489.049 91.6554 491.2 91.6554C492.748 91.6554 494.204 91.8784 495.568 92.3244C496.959 92.7703 498.192 93.4262 499.267 94.2919C500.369 95.1314 501.274 96.1807 501.982 97.44C502.691 98.6992 503.137 100.142 503.32 101.769H497.339ZM507.775 92.3244H528.789V97.5187H513.953V103.539H527.569V108.34H513.953V115.227H529.103V120.421H507.775V92.3244Z" fill="#04F791"/>
</g>
<rect x="2" y="2" width="1230" height="563.297" rx="19.4236" stroke="#07E187" stroke-width="4"/>
<defs>
<filter id="filter0_d_622_109" x="608.814" y="262.609" width="16.3711" height="312.873" filterUnits="userSpaceOnUse" color-interpolation-filters="sRGB">
<feFlood flood-opacity="0" result="BackgroundImageFix"/>
<feColorMatrix in="SourceAlpha" type="matrix" values="0 0 0 0 0 0 0 0 0 0 0 0 0 0 0 0 0 0 127 0" result="hardAlpha"/>
<feOffset/>
<feGaussianBlur stdDeviation="2.5"/>
<feComposite in2="hardAlpha" operator="out"/>
<feColorMatrix type="matrix" values="0 0 0 0 0 0 0 0 0 0 0 0 0 0 0 0 0 0 0.41 0"/>
<feBlend mode="normal" in2="BackgroundImageFix" result="effect1_dropShadow_622_109"/>
<feBlend mode="normal" in="SourceGraphic" in2="effect1_dropShadow_622_109" result="shape"/>
</filter>
<filter id="filter1_d_622_109" x="351.73" y="332.021" width="16.3711" height="243.46" filterUnits="userSpaceOnUse" color-interpolation-filters="sRGB">
<feFlood flood-opacity="0" result="BackgroundImageFix"/>
<feColorMatrix in="SourceAlpha" type="matrix" values="0 0 0 0 0 0 0 0 0 0 0 0 0 0 0 0 0 0 127 0" result="hardAlpha"/>
<feOffset/>
<feGaussianBlur stdDeviation="2.5"/>
<feComposite in2="hardAlpha" operator="out"/>
<feColorMatrix type="matrix" values="0 0 0 0 0 0 0 0 0 0 0 0 0 0 0 0 0 0 0.41 0"/>
<feBlend mode="normal" in2="BackgroundImageFix" result="effect1_dropShadow_622_109"/>
<feBlend mode="normal" in="SourceGraphic" in2="effect1_dropShadow_622_109" result="shape"/>
</filter>
<filter id="filter2_d_622_109" x="94.6484" y="452.851" width="16.3711" height="122.631" filterUnits="userSpaceOnUse" color-interpolation-filters="sRGB">
<feFlood flood-opacity="0" result="BackgroundImageFix"/>
<feColorMatrix in="SourceAlpha" type="matrix" values="0 0 0 0 0 0 0 0 0 0 0 0 0 0 0 0 0 0 127 0" result="hardAlpha"/>
<feOffset/>
<feGaussianBlur stdDeviation="2.5"/>
<feComposite in2="hardAlpha" operator="out"/>
<feColorMatrix type="matrix" values="0 0 0 0 0 0 0 0 0 0 0 0 0 0 0 0 0 0 0.41 0"/>
<feBlend mode="normal" in2="BackgroundImageFix" result="effect1_dropShadow_622_109"/>
<feBlend mode="normal" in="SourceGraphic" in2="effect1_dropShadow_622_109" result="shape"/>
</filter>
<filter id="filter3_d_622_109" x="865.898" y="147.779" width="16.3711" height="427.704" filterUnits="userSpaceOnUse" color-interpolation-filters="sRGB">
<feFlood flood-opacity="0" result="BackgroundImageFix"/>
<feColorMatrix in="SourceAlpha" type="matrix" values="0 0 0 0 0 0 0 0 0 0 0 0 0 0 0 0 0 0 127 0" result="hardAlpha"/>
<feOffset/>
<feGaussianBlur stdDeviation="2.5"/>
<feComposite in2="hardAlpha" operator="out"/>
<feColorMatrix type="matrix" values="0 0 0 0 0 0 0 0 0 0 0 0 0 0 0 0 0 0 0.41 0"/>
<feBlend mode="normal" in2="BackgroundImageFix" result="effect1_dropShadow_622_109"/>
<feBlend mode="normal" in="SourceGraphic" in2="effect1_dropShadow_622_109" result="shape"/>
</filter>
<filter id="filter4_d_622_109" x="1122.98" y="40.6606" width="16.3711" height="532.799" filterUnits="userSpaceOnUse" color-interpolation-filters="sRGB">
<feFlood flood-opacity="0" result="BackgroundImageFix"/>
<feColorMatrix in="SourceAlpha" type="matrix" values="0 0 0 0 0 0 0 0 0 0 0 0 0 0 0 0 0 0 127 0" result="hardAlpha"/>
<feOffset/>
<feGaussianBlur stdDeviation="2.5"/>
<feComposite in2="hardAlpha" operator="out"/>
<feColorMatrix type="matrix" values="0 0 0 0 0 0 0 0 0 0 0 0 0 0 0 0 0 0 0.41 0"/>
<feBlend mode="normal" in2="BackgroundImageFix" result="effect1_dropShadow_622_109"/>
<feBlend mode="normal" in="SourceGraphic" in2="effect1_dropShadow_622_109" result="shape"/>
</filter>
<clipPath id="clip0_622_109">
<rect width="1234" height="567.297" rx="21.4236" fill="white"/>
</clipPath>
</defs>
</svg>
