<svg width="71" height="108" viewBox="0 0 71 108" fill="none" xmlns="http://www.w3.org/2000/svg">
<path d="M70.8557 43.35C70.6267 44.7523 70.6624 46.2136 70.2996 47.5746C69.1369 51.929 64.6882 54.8281 59.5943 54.7336C57.982 54.7301 56.3879 54.3951 54.9124 53.7499C53.4369 53.1046 52.112 52.163 51.0212 50.9843C49.1002 48.968 46.9234 48.472 44.2977 49.4256C39.3911 51.1969 34.3982 51.563 29.2835 50.2906C28.4925 50.0928 27.309 50.2551 26.7142 50.7423C25.5248 51.7106 26.3009 53.3992 28.0911 53.8598C31.8886 54.8141 35.8379 55.0197 39.7152 54.465C40.1821 54.403 40.8839 54.4827 41.1515 54.7838C46.2692 60.4786 51.1639 66.3534 53.8521 73.6335C54.8096 76.2255 55.3211 78.9799 56.121 81.9705H54.0395C39.2513 81.9705 24.4632 81.9528 9.675 82C8.44984 82 8.05732 81.6605 7.73318 80.4678C5.94897 73.8874 3.98634 67.3512 2.13373 60.7885C-0.926197 49.9629 -0.947013 39.2907 3.72763 28.8282C7.90268 19.4845 14.7422 13.0694 24.4959 9.67736C25.7032 9.25815 26.7737 8.20127 27.6777 7.24181C29.3162 5.47049 30.7644 3.54862 32.3345 1.72417C32.7428 1.29603 33.2116 0.929078 33.7262 0.634815C35.6769 -0.590342 37.1638 -0.0353312 37.4403 2.2408C37.6337 4.2434 37.6725 6.25775 37.5563 8.26621C37.5176 9.38214 37.9013 9.88106 38.9926 9.97848C39.5801 10.0559 40.1614 10.1743 40.7322 10.3327C42.4361 10.7283 43.3847 11.7586 43.2301 13.4503C43.0933 14.9057 43.807 15.6083 44.9965 15.9153C48.9247 16.9309 51.7557 19.3517 54.2149 22.4603C57.7833 26.9654 62.1933 30.6408 66.755 34.0949C69.9219 36.4862 71.5069 39.3675 70.8557 43.35Z" fill="#FFEE00"/>
<path d="M63.992 105.47C63.992 107.364 63.3615 107.997 61.5056 108H2.72438C0.594439 108 0.0405942 107.437 0.0229183 105.212C0.00524239 102.883 -0.0183255 100.551 0.0229183 98.2253C0.0877299 95.5464 1.60491 94.0122 4.21211 94.0091C22.7286 93.997 41.2451 93.997 59.7615 94.0091C62.4483 94.0091 63.9625 95.5951 63.9802 98.3318C64.0018 100.71 64.0057 103.09 63.992 105.47Z" fill="#FFEE00"/>
<path d="M59 90H5C5.04412 87.6892 6.35294 86.1971 8.42647 86.0303C8.76765 86 9.11177 86 9.45294 86C24.5039 86 39.5539 86 54.6029 86C57.4618 86.003 58.8588 87.2403 59 90Z" fill="#FFEE00"/>
</svg>
