<svg width="128" height="22" viewBox="0 0 128 22" fill="none" xmlns="http://www.w3.org/2000/svg">
<rect width="21.7906" height="21.7906" fill="#151515"/>
<rect x="26.5" width="21.7906" height="21.7906" fill="#151515"/>
<rect x="53.002" width="21.7906" height="21.7906" fill="#151515"/>
<rect x="79.5059" width="21.7906" height="21.7906" fill="#151515"/>
<rect x="106.006" width="21.7906" height="21.7906" fill="#151515"/>
<path d="M10.2673 4.85438C10.4178 4.40516 11.0531 4.40516 11.2036 4.85438L12.4627 8.61413C12.5296 8.81383 12.7158 8.94912 12.9264 8.95102L16.8913 8.98672C17.365 8.99099 17.5613 9.59528 17.1806 9.87718L13.994 12.2365C13.8247 12.3619 13.7536 12.5808 13.8169 12.7816L15.0081 16.5635C15.1504 17.0153 14.6364 17.3888 14.2506 17.1138L11.022 14.8122C10.8505 14.6899 10.6204 14.6899 10.4489 14.8122L7.22027 17.1138C6.83451 17.3888 6.32047 17.0153 6.4628 16.5635L7.65405 12.7816C7.71732 12.5808 7.6462 12.3619 7.47693 12.2365L4.2903 9.87718C3.90956 9.59528 4.1059 8.99099 4.57962 8.98672L8.54446 8.95102C8.75506 8.94912 8.94127 8.81383 9.00815 8.61413L10.2673 4.85438Z" fill="white"/>
<path d="M36.9275 4.85438C37.0779 4.40516 37.7133 4.40516 37.8637 4.85438L39.1229 8.61413C39.1898 8.81383 39.376 8.94912 39.5866 8.95102L43.5514 8.98672C44.0252 8.99099 44.2215 9.59528 43.8408 9.87718L40.6541 12.2365C40.4849 12.3619 40.4137 12.5808 40.477 12.7816L41.6683 16.5635C41.8106 17.0153 41.2965 17.3888 40.9108 17.1138L37.6822 14.8122C37.5107 14.6899 37.2805 14.6899 37.109 14.8122L33.8804 17.1138C33.4947 17.3888 32.9806 17.0153 33.123 16.5635L34.3142 12.7816C34.3775 12.5808 34.3064 12.3619 34.1371 12.2365L30.9505 9.87718C30.5697 9.59528 30.7661 8.99099 31.2398 8.98672L35.2046 8.95102C35.4152 8.94912 35.6014 8.81383 35.6683 8.61413L36.9275 4.85438Z" fill="white"/>
<path d="M63.3415 4.85438C63.492 4.40516 64.1274 4.40516 64.2778 4.85438L65.537 8.61413C65.6038 8.81383 65.7901 8.94912 66.0007 8.95102L69.9655 8.98672C70.4392 8.99099 70.6356 9.59528 70.2548 9.87718L67.0682 12.2365C66.8989 12.3619 66.8278 12.5808 66.8911 12.7816L68.0823 16.5635C68.2246 17.0153 67.7106 17.3888 67.3249 17.1138L64.0962 14.8122C63.9248 14.6899 63.6946 14.6899 63.5231 14.8122L60.2945 17.1138C59.9087 17.3888 59.3947 17.0153 59.537 16.5635L60.7283 12.7816C60.7915 12.5808 60.7204 12.3619 60.5512 12.2365L57.3645 9.87718C56.9838 9.59528 57.1801 8.99099 57.6538 8.98672L61.6187 8.95102C61.8293 8.94912 62.0155 8.81383 62.0824 8.61413L63.3415 4.85438Z" fill="white"/>
<path d="M89.7517 4.85438C89.9021 4.40516 90.5375 4.40516 90.688 4.85438L91.9471 8.61413C92.014 8.81383 92.2002 8.94912 92.4108 8.95102L96.3756 8.98672C96.8494 8.99099 97.0457 9.59528 96.665 9.87718L93.4783 12.2365C93.3091 12.3619 93.238 12.5808 93.3012 12.7816L94.4925 16.5635C94.6348 17.0153 94.1208 17.3888 93.735 17.1138L90.5064 14.8122C90.3349 14.6899 90.1047 14.6899 89.9332 14.8122L86.7046 17.1138C86.3189 17.3888 85.8048 17.0153 85.9472 16.5635L87.1384 12.7816C87.2017 12.5808 87.1306 12.3619 86.9613 12.2365L83.7747 9.87718C83.3939 9.59528 83.5903 8.99099 84.064 8.98672L88.0288 8.95102C88.2394 8.94912 88.4256 8.81383 88.4925 8.61413L89.7517 4.85438Z" fill="white"/>
<path d="M116.166 4.85438C116.316 4.40516 116.952 4.40516 117.102 4.85438L118.361 8.61413C118.428 8.81383 118.614 8.94912 118.825 8.95102L122.79 8.98672C123.263 8.99099 123.46 9.59528 123.079 9.87718L119.892 12.2365C119.723 12.3619 119.652 12.5808 119.715 12.7816L120.907 16.5635C121.049 17.0153 120.535 17.3888 120.149 17.1138L116.92 14.8122C116.749 14.6899 116.519 14.6899 116.347 14.8122L113.119 17.1138C112.733 17.3888 112.219 17.0153 112.361 16.5635L113.552 12.7816C113.616 12.5808 113.545 12.3619 113.375 12.2365L110.189 9.87718C109.808 9.59528 110.004 8.99099 110.478 8.98672L114.443 8.95102C114.653 8.94912 114.84 8.81383 114.907 8.61413L116.166 4.85438Z" fill="white"/>
</svg>
