<svg width="138" height="128" viewBox="0 0 138 128" fill="none" xmlns="http://www.w3.org/2000/svg">
<g clip-path="url(#clip0_248_5)">
<path d="M87.7977 39.2116C88.0493 28.8384 83.5952 20.7493 74.7981 15.3731C66.4769 10.2862 57.599 9.93557 48.8461 14.3087C39.6871 18.8824 34.601 26.5118 33.9355 36.6764C33.2821 46.4701 37.2268 54.3892 45.157 60.2656C45.8322 60.7664 45.9946 61.2214 45.8497 62.0279C44.2359 70.9895 42.6585 79.9556 41.0706 88.9218C39.6355 97.0256 38.2002 105.131 36.7646 113.237C36.6978 113.615 36.6038 114.145 36.7959 114.386C37.9751 115.866 39.2423 117.279 40.6451 118.915L49.2268 70.4551L51.7721 70.9058L48.4431 89.7048C46.6267 99.9614 44.8106 110.217 42.9948 120.471C42.9286 120.844 42.8541 121.358 43.0444 121.609C43.8316 122.64 44.7189 123.594 45.6015 124.609C49.5219 122.434 53.3498 120.316 57.1537 118.16C57.4405 118.005 57.6727 117.555 57.7346 117.205C58.3325 114.003 58.9069 110.795 59.4393 107.579C59.4838 107.127 59.3859 106.672 59.1592 106.277C58.6908 105.434 58.134 104.649 57.5926 103.811C57.9217 103.526 58.2713 103.265 58.6387 103.031C60.1691 102.213 60.8729 100.948 60.9593 99.2278C61.0127 98.2289 61.3591 97.2491 61.4355 96.2481C61.4888 95.6353 61.3816 95.0189 61.1243 94.4591C60.531 93.2637 59.7957 92.1374 59.0921 90.9368C59.5086 90.5843 59.8561 90.2031 60.2801 89.9482C62.3541 88.7005 63.5178 86.9431 63.5652 84.4777C63.6049 83.8039 63.723 83.137 63.9171 82.4905C64.3371 80.8863 64.5226 79.339 63.1814 78.0296C63.1636 78.0141 63.178 77.9675 63.1758 77.7007C63.523 77.5311 63.8574 77.3369 64.1765 77.1196C64.4852 76.8873 64.9078 76.6055 64.9705 76.2867C65.5329 73.3898 66.0278 70.479 66.5697 67.4187C63.4833 67.6781 60.3742 67.396 57.384 66.5852C55.7155 66.136 54.1183 65.3777 52.5526 64.627C52.3762 64.5558 52.219 64.4444 52.0936 64.3019C51.9681 64.1593 51.878 63.9895 51.8304 63.806C51.7828 63.6226 51.779 63.4307 51.8194 63.2457C51.8598 63.0607 51.9432 62.8878 52.063 62.7408C52.5872 62.1061 53.182 62.1192 53.9426 62.4978C58.5701 64.8175 63.3858 65.6908 68.4759 64.2352C71.4709 63.4086 74.2858 62.038 76.7791 60.1924C83.7711 54.95 87.5834 47.9558 87.7977 39.2116ZM61.5905 34.4374C58.3012 33.8856 55.9764 30.6435 56.4986 27.3338C57.0106 24.094 60.3093 21.7555 63.6302 22.2801C65.2497 22.552 66.6955 23.4531 67.6494 24.7853C68.6034 26.1175 68.9874 27.7716 68.7169 29.3838C68.4464 30.9959 67.5436 32.4341 66.2072 33.3818C64.8707 34.3295 63.2101 34.7092 61.5905 34.4374Z" fill="white"/>
<path d="M68.5 69C55 70 45.5 67 40.5 61.5" stroke="#151515" stroke-width="7"/>
<rect x="46" y="20" width="30" height="25" fill="#151515"/>
<path d="M82.0874 22.2669C75.6064 14.1637 66.9923 10.8364 56.7988 12.3802C47.1556 13.8393 40.1334 19.2825 36.2459 28.2616C32.1765 37.6556 33.1913 46.7686 39.2211 54.9785C45.0217 62.8966 53.1365 66.4213 62.9882 65.8182C63.8273 65.7672 64.2444 66.0111 64.6523 66.7217C69.1823 74.6207 73.743 82.4997 78.2959 90.3855C82.4108 97.5128 86.5264 104.641 90.6427 111.771C90.8345 112.103 91.1039 112.57 91.4059 112.631C93.2606 113.005 95.1399 113.271 97.2663 113.621L72.6593 71.0007L74.898 69.7082L84.4437 86.2419C89.6518 95.2625 94.8592 104.282 100.066 113.3C100.256 113.629 100.529 114.07 100.836 114.14C102.102 114.423 103.395 114.582 104.724 114.792C106.326 110.604 107.894 106.52 109.419 102.422C109.539 102.119 109.427 101.625 109.249 101.317C107.647 98.4813 106.023 95.6557 104.361 92.8513C104.105 92.4765 103.737 92.1912 103.309 92.0348C102.408 91.6905 101.477 91.4477 100.523 91.1546C100.592 90.7246 100.692 90.3 100.822 89.8843C101.468 88.2741 101.193 86.8529 100.152 85.48C99.5506 84.6809 99.1855 83.7079 98.6 82.8925C98.2465 82.389 97.7679 81.9861 97.2108 81.7231C95.9875 81.1896 94.6999 80.8004 93.3889 80.334C93.481 79.7961 93.5018 79.2807 93.6624 78.8128C94.4475 76.5232 94.2077 74.4292 92.6579 72.5113C92.2548 71.9699 91.9162 71.3834 91.6488 70.7636C90.9383 69.2652 90.0848 67.9613 88.2157 67.8217C88.1921 67.8214 88.1731 67.7764 87.9998 67.5735C88.1565 67.2204 88.2875 66.8566 88.392 66.4849C88.4789 66.1084 88.6212 65.6208 88.464 65.3364C87.0309 62.7569 85.537 60.21 83.9831 57.5185C81.7871 59.7027 79.2254 61.4869 76.4146 62.79C74.8483 63.5196 73.1375 63.9666 71.4559 64.3992C71.2751 64.4582 71.0831 64.4741 70.8954 64.4456C70.7076 64.4171 70.5294 64.3451 70.3749 64.2353C70.2204 64.1255 70.0941 63.981 70.006 63.8134C69.9179 63.6458 69.8705 63.4597 69.8676 63.2702C69.8606 62.447 70.3244 62.0744 71.1503 61.8748C76.1853 60.6736 80.4339 58.244 83.3943 53.8549C85.1554 51.2953 86.4286 48.435 87.15 45.418C89.1302 36.9063 87.549 29.0991 82.0874 22.2669ZM58.9525 35.4724C56.0794 37.1661 52.2137 36.1798 50.4842 33.31C48.7918 30.5003 49.8128 26.5878 52.6926 24.8529C54.1074 24.0191 55.794 23.7788 57.3814 24.185C58.9687 24.5912 60.3269 25.6105 61.157 27.0187C61.9871 28.4269 62.2212 30.1087 61.8078 31.6941C61.3944 33.2795 60.3673 34.6385 58.9525 35.4724Z" fill="white"/>
</g>
<defs>
<clipPath id="clip0_248_5">
<rect width="138" height="128" fill="white"/>
</clipPath>
</defs>
</svg>
