<svg width="82" height="116" viewBox="0 0 82 116" fill="none" xmlns="http://www.w3.org/2000/svg">
<path d="M80.7633 71.4217C79.2636 69.5663 75.9549 69.1595 74.2098 70.556C73.1996 71.364 72.2547 72.2453 71.2686 73.0899C67.1796 76.5671 62.6876 79.3939 57.6579 81.3324C46.9851 85.4098 35.1683 85.4193 24.4888 81.3592C23.7269 81.0692 23.6772 80.9368 24.0177 80.2329C26.8421 74.4452 29.666 68.6555 32.4895 62.8639C34.29 59.184 36.116 55.5154 37.9321 51.844C38.4996 50.7037 38.4996 50.6699 39.8092 50.8839C41.8693 51.2217 43.85 50.805 45.7682 50.18C48.2568 49.3649 50.3368 47.8684 52.0039 45.8553C53.837 43.6423 54.9536 41.0985 55.2147 38.2407C55.3807 36.4233 55.2984 34.6143 54.6997 32.8406C54.1761 31.2836 53.5291 29.8012 52.5516 28.4765C50.7951 26.103 48.4753 24.4756 45.7185 23.4198C45.4944 23.3325 45.2163 23.0172 45.2078 22.8004C45.1609 21.4433 45.1851 20.0834 45.1822 18.7179C45.1822 18.342 45.3496 18.1702 45.7498 18.1815C46.4109 18.1998 47.0721 18.1646 47.7361 18.19C48.2923 18.2125 48.4796 17.976 48.4781 17.4396C48.4611 13.2909 48.4881 9.14367 48.4483 4.99639C48.4279 3.70497 47.9074 2.47087 46.9948 1.54988C46.0822 0.6289 44.8474 0.0916563 43.5463 0.0495102C41.8438 -0.00820816 40.1412 -0.0279169 38.4471 0.0593645C35.7514 0.200141 33.7281 2.25125 33.6331 4.6163C33.4628 8.92265 33.5806 13.2389 33.5706 17.5508C33.5706 17.9985 33.7806 18.1871 34.2176 18.1843C34.8788 18.1843 35.5399 18.2069 36.204 18.1843C36.7005 18.1674 36.9446 18.3251 36.9332 18.8629C36.9091 20.1299 36.9545 21.3968 36.8992 22.6568C36.8864 22.9229 36.6154 23.2748 36.3657 23.4114C35.6478 23.8069 34.8518 24.0603 34.1382 24.4615C29.8689 26.8547 27.4598 30.5515 26.8227 35.3239C26.434 38.2436 27.1065 41.0267 28.5253 43.6297C28.6088 43.8105 28.6547 44.0061 28.6603 44.205C28.6659 44.4038 28.6311 44.6017 28.5579 44.7868C27.6613 46.7267 26.695 48.6357 25.7529 50.5587C23.7666 54.6102 21.7803 58.6613 19.7939 62.7119C17.8331 66.7043 15.8624 70.6911 13.9243 74.6934C13.6902 75.1763 13.5071 75.2438 13.1099 74.9088C11.5705 73.6108 9.99415 72.3593 8.51148 71.0177C6.39461 69.1215 3.03627 69.3087 1.2443 71.502C-0.507937 73.6474 -0.302208 76.5699 1.86858 78.4873C3.93438 80.3174 6.09098 82.0419 8.2334 83.7805C9.35142 84.6857 9.17833 84.3704 8.63492 85.4952C6.54642 89.8297 4.3884 94.1304 2.27578 98.4536C1.99202 99.0336 1.68555 99.6502 1.61461 100.277C1.04851 105.233 0.534894 110.196 0.0113505 115.155C-0.0141882 115.389 0.0113505 115.627 0.0113505 116C0.174269 115.904 0.331541 115.8 0.482398 115.686C4.13254 112.257 7.77937 108.822 11.4229 105.383C11.7268 105.1 11.9785 104.766 12.1664 104.397C14.4365 99.8117 16.6877 95.2186 18.9199 90.618C19.1867 90.0676 19.496 90.1042 19.9287 90.2618C21.3787 90.7898 22.7976 91.4289 24.2831 91.8231C26.8142 92.4946 29.3695 93.1041 31.9447 93.5645C34.1387 93.9507 36.3542 94.206 38.5791 94.3289C41.7553 94.5254 44.9437 94.3696 48.0851 93.8643C50.2134 93.5138 52.3586 93.2632 54.4258 92.7029C57.2717 91.9494 60.0726 91.0376 62.8153 89.9718C66.8228 88.3838 70.5862 86.2462 73.9956 83.6214C76.3106 81.8567 78.5277 79.9689 80.637 77.9664C82.4957 76.1927 82.3708 73.4109 80.7633 71.4217ZM41.062 30.4192C44.4671 30.4643 47.4665 33.0616 47.4878 36.8105C47.4965 38.5002 46.829 40.1244 45.632 41.3263C44.435 42.5283 42.8061 43.2099 41.1031 43.2214C37.5759 43.258 34.4929 40.3608 34.6362 36.8119C34.5056 33.215 37.6795 30.3742 41.062 30.4192Z" fill="#04F791"/>
<path d="M65.5739 71.8813C62.86 73.8551 59.934 75.5247 56.8494 76.8596C56.6783 76.917 56.5038 76.9639 56.3269 77C56.1966 76.8736 55.9686 76.743 55.8723 76.5478C54.4251 73.5988 53.0005 70.6498 51.5589 67.7008C49.9205 64.3417 48.2623 61.0009 46.6253 57.6516C46.1551 56.6939 45.7006 55.7292 45.2446 54.7658C44.8566 53.9457 44.8736 53.8081 45.7119 53.5862C49.0298 52.7099 51.6977 50.8282 54.0229 48.3903C54.5468 47.8412 54.6389 47.8567 54.9703 48.5308C58.5917 55.9267 62.2173 63.3194 65.8472 70.7088C66.112 71.2564 66.0398 71.5457 65.5739 71.8813Z" fill="#04F791"/>
<path d="M82 115.909L81.8029 116C80.5727 114.823 79.3357 113.652 78.1125 112.468C75.6426 110.075 73.1379 107.717 70.7388 105.253C70.0862 104.582 69.7086 103.608 69.2851 102.733C67.8898 99.8564 66.5403 96.9576 65.1547 94.0771C64.9186 93.5897 64.902 93.3191 65.4684 93.0527C68.4868 91.6359 71.4385 90.0901 74.1709 88.1547C74.5582 87.8812 74.7998 87.9691 75.0164 88.4281C76.7213 92.0241 78.4541 95.6073 80.1632 99.1962C80.3418 99.5508 80.4587 99.9343 80.5089 100.33C80.7421 102.738 80.9254 105.158 81.16 107.568C81.3891 109.886 81.6765 112.2 81.9278 114.511C81.9778 114.984 81.9764 115.447 82 115.909Z" fill="#04F791"/>
</svg>
